<svg xmlns="http://www.w3.org/2000/svg" viewBox="0 0 120.56 122.77"><defs><style>.cls-1{fill:#fff;}</style></defs><title>Asset 32</title><g id="Layer_2" data-name="Layer 2"><g id="infographic"><g id="popular"><g id="popular-2" data-name="popular"><g id="reason_icons" data-name="reason icons"><g id="countryside"><g id="gps"><path class="cls-1" d="M41.93,59.22A23.14,23.14,0,0,0,24.5,51.1,23.14,23.14,0,0,0,7.07,59.22c-9.43,10.65-9.43,28,0,38.63L24.5,117.54,41.93,97.85C51.35,87.2,51.35,69.87,41.93,59.22ZM38.87,95.14,24.5,111.37,10.13,95.14C2,86,2,71.09,10.13,61.93A19.12,19.12,0,0,1,24.5,55.18a19.1,19.1,0,0,1,14.36,6.75C47,71.09,47,86,38.87,95.14Z"/><path class="cls-1" d="M98.59,50.09,111.81,35.2a22.49,22.49,0,0,0,0-29.06,17.29,17.29,0,0,0-26.43,0,22.46,22.46,0,0,0,0,29.06ZM88.44,8.86a13.19,13.19,0,0,1,20.31,0,18.25,18.25,0,0,1,0,23.62L98.59,43.93,88.44,32.48A18.25,18.25,0,0,1,88.44,8.86Z"/><path class="cls-1" d="M106.48,111.42A2,2,0,0,0,104,113a7.19,7.19,0,0,1-1.36,2.84,2,2,0,0,0,.34,2.87,2,2,0,0,0,1.26.44,2,2,0,0,0,1.61-.78,11.21,11.21,0,0,0,2.13-4.47A2,2,0,0,0,106.48,111.42Z"/><path class="cls-1" d="M64.33,63.77a7,7,0,0,1-2.41-.42,2.09,2.09,0,0,0-2.53.8,2,2,0,0,0,1,2.9,11.11,11.11,0,0,0,3.92.72h.58A2.09,2.09,0,0,0,67,66.07a2,2,0,0,0-2-2.3Z"/><path class="cls-1" d="M59.5,50.43a2.1,2.1,0,0,0,1.08-.3,7,7,0,0,1,3-1A2,2,0,0,0,63.11,45a11.18,11.18,0,0,0-4.69,1.62,2,2,0,0,0,1.08,3.78Z"/><path class="cls-1" d="M35.84,118.77H32a2.11,2.11,0,0,0-2.12,1.7,2,2,0,0,0,2,2.3H35.7a2.1,2.1,0,0,0,2.12-1.7A2,2,0,0,0,35.84,118.77Z"/><path class="cls-1" d="M72.56,81.77h-.35a2.09,2.09,0,0,0-2.06,1.8,2,2,0,0,0,2,2.19H76a2.08,2.08,0,0,0,2.11-1.7,2,2,0,0,0-2-2.29Z"/><path class="cls-1" d="M71.55,48.77h3.86a2.1,2.1,0,0,0,2.12-1.7,2,2,0,0,0-2-2.3H71.69a2.11,2.11,0,0,0-2.12,1.7A2,2,0,0,0,71.55,48.77Z"/><path class="cls-1" d="M96.66,81.77a2,2,0,0,0-2,2.3,2.09,2.09,0,0,0,2.12,1.7h3.72a2.1,2.1,0,0,0,2.12-1.7,2,2,0,0,0-2-2.3Z"/><path class="cls-1" d="M101.69,63.77H98a2.11,2.11,0,0,0-2.12,1.7,2,2,0,0,0,2,2.3h4a2,2,0,0,0,2-2.29A2.11,2.11,0,0,0,101.69,63.77Z"/><path class="cls-1" d="M84.39,85.77h3.86a2.09,2.09,0,0,0,2.12-1.7,2,2,0,0,0-2-2.3H84.54a2.1,2.1,0,0,0-2.12,1.71A2,2,0,0,0,84.39,85.77Z"/><path class="cls-1" d="M87.81,48.77a2,2,0,0,0,2-2.3,2.1,2.1,0,0,0-2.12-1.7H84a2.11,2.11,0,0,0-2.12,1.7,2,2,0,0,0,2,2.3Z"/><path class="cls-1" d="M73.3,63.77a2,2,0,0,0-2,2.3,2.1,2.1,0,0,0,2.12,1.7h3.72a2.09,2.09,0,0,0,2.12-1.7,2,2,0,0,0-2-2.3Z"/><path class="cls-1" d="M89.42,63.77H85.71a2.1,2.1,0,0,0-2.12,1.7,2,2,0,0,0,2,2.3h4a2,2,0,0,0,2-2.29A2.1,2.1,0,0,0,89.42,63.77Z"/><path class="cls-1" d="M120.42,72.83a2,2,0,0,0-4,.64,7,7,0,0,1,.09,1.13,7.2,7.2,0,0,1-.29,2,2,2,0,0,0,1.39,2.54,2.24,2.24,0,0,0,.57.08,2,2,0,0,0,2-1.47,11.27,11.27,0,0,0,.46-3.15A10.8,10.8,0,0,0,120.42,72.83Z"/><path class="cls-1" d="M84.89,118.77H81a2.11,2.11,0,0,0-2.12,1.7,2,2,0,0,0,2,2.3h3.86a2.09,2.09,0,0,0,2.12-1.7A2,2,0,0,0,84.89,118.77Z"/><path class="cls-1" d="M72.63,118.77H68.77a2.1,2.1,0,0,0-2.12,1.7,2,2,0,0,0,2,2.3h3.86a2.1,2.1,0,0,0,2.12-1.7A2,2,0,0,0,72.63,118.77Z"/><path class="cls-1" d="M92.93,99.77H89.21a2.11,2.11,0,0,0-2.12,1.7,2,2,0,0,0,2,2.3h4a2,2,0,0,0,2-2.29A2.11,2.11,0,0,0,92.93,99.77Z"/><path class="cls-1" d="M80.66,99.77H77a2.1,2.1,0,0,0-2.12,1.7,2,2,0,0,0,2,2.3h4a2,2,0,0,0,2-2.29A2.1,2.1,0,0,0,80.66,99.77Z"/><path class="cls-1" d="M97.45,118.77H93.82a2.1,2.1,0,0,0-2.12,1.7,2,2,0,0,0,2,2.3h3.94l.06-2v2a1.94,1.94,0,0,0,1.93-2A2.13,2.13,0,0,0,97.45,118.77Z"/><path class="cls-1" d="M104.28,107.75a2,2,0,0,0,1.27-.44,2,2,0,0,0,.34-2.87,11.49,11.49,0,0,0-3.84-3.12,2,2,0,0,0-1.82,3.66,7.24,7.24,0,0,1,2.44,2A2.07,2.07,0,0,0,104.28,107.75Z"/><path class="cls-1" d="M110.53,81.77h-2.29a.7.7,0,0,0-.5.2c-1.69,1.74-.5,3.8,1.18,3.8h.43a10.85,10.85,0,0,0,4.91-1.16.67.67,0,0,0,.34-.36c1-2.39-1.3-3.87-2.86-2.85A2.26,2.26,0,0,1,110.53,81.77Z"/><path class="cls-1" d="M56.25,61a2,2,0,0,0,1.3-2.58,7.32,7.32,0,0,1-.35-2.23,6.84,6.84,0,0,1,.06-.91,2,2,0,0,0-4.06-.52,11.27,11.27,0,0,0,.47,4.93A2,2,0,0,0,56.25,61Z"/><path class="cls-1" d="M48.1,118.77H44.24a2.11,2.11,0,0,0-2.12,1.7,2,2,0,0,0,2,2.3H48a2.09,2.09,0,0,0,2.12-1.7A2,2,0,0,0,48.1,118.77Z"/><path class="cls-1" d="M68.7,103.41a2.05,2.05,0,0,0,.86-3.91,7.23,7.23,0,0,1-2.51-1.91,2,2,0,0,0-3.13,2.63,11.37,11.37,0,0,0,3.94,3A2.1,2.1,0,0,0,68.7,103.41Z"/><path class="cls-1" d="M114.94,64.87a11,11,0,0,0-4.73-1.48,2,2,0,0,0-.32,4.08,7,7,0,0,1,3,.93,2,2,0,1,0,2-3.53Z"/><path class="cls-1" d="M60.37,118.77H56.51a2.1,2.1,0,0,0-2.12,1.7,2,2,0,0,0,2,2.3h3.85a2.09,2.09,0,0,0,2.12-1.7A2,2,0,0,0,60.37,118.77Z"/><path class="cls-1" d="M65.5,91.64a7,7,0,0,1,1.27-2.88,2,2,0,0,0-3.3-2.43,11.2,11.2,0,0,0-2,4.55,2.06,2.06,0,0,0,1.63,2.39,2.58,2.58,0,0,0,.38,0A2.07,2.07,0,0,0,65.5,91.64Z"/><path class="cls-1" d="M99.1,30.66A11.24,11.24,0,1,0,87.86,19.42,11.26,11.26,0,0,0,99.1,30.66Zm0-18.4a7.16,7.16,0,1,1-7.16,7.16A7.16,7.16,0,0,1,99.1,12.26Z"/><path class="cls-1" d="M24.5,63.36A12.26,12.26,0,1,0,36.76,75.62,12.28,12.28,0,0,0,24.5,63.36Zm0,20.44a8.18,8.18,0,1,1,8.17-8.18A8.19,8.19,0,0,1,24.5,83.8Z"/></g></g></g></g></g></g></g></svg>