<svg xmlns="http://www.w3.org/2000/svg" viewBox="0 0 155.13 139.62"><defs><style>.cls-1{fill:#fff;}</style></defs><title>Asset 35</title><g id="Layer_2" data-name="Layer 2"><g id="infographic"><g id="popular"><g id="popular-2" data-name="popular"><g id="reason_icons" data-name="reason icons"><g id="network-fee"><g id="coins"><path id="coins-2" data-name="coins" class="cls-1" d="M75.13,30.6V41.51c0,5.64-16.8,10.22-37.5,10.22S.13,47.15.13,41.51V30.6c0,5.65,16.79,10.23,37.5,10.23S75.13,36.25,75.13,30.6Zm-.32-2c0,5.63-16.75,10.2-37.41,10.2S0,34.2,0,28.57s16.75-10.2,37.4-10.2S74.81,22.93,74.81,28.57ZM37.63,54.48C16.92,54.48.13,49.9.13,44.26v10.9c0,5.65,16.79,10.23,37.5,10.23s37.49-4.58,37.5-10.23V44.26C75.13,49.9,58.34,54.48,37.63,54.48Zm0,13.74C16.92,68.22.13,63.64.13,58V68.9c0,5.65,16.79,10.22,37.5,10.22s37.49-4.57,37.5-10.22V58C75.13,63.64,58.34,68.22,37.63,68.22Zm0,13.5C16.92,81.72.13,77.14.13,71.49V82.4c0,5.64,16.79,10.22,37.5,10.22S75.12,88,75.13,82.4V71.49C75.13,77.15,58.34,81.72,37.63,81.72Zm0,13.34C16.92,95.06.13,90.47.13,84.83v10.9c0,5.65,16.79,10.23,37.5,10.23s37.49-4.58,37.5-10.23V84.83C75.13,90.47,58.34,95.06,37.63,95.06Zm0,13.31c-20.71,0-37.5-4.58-37.5-10.23v10.91c0,5.64,16.79,10.22,37.5,10.22s37.49-4.58,37.5-10.22V98.14C75.13,103.79,58.34,108.37,37.63,108.37Zm42-77.12h.54v.27a117.37,117.37,0,0,0,20.67,1.71c20.61,0,37.32-4.56,37.33-10.2V12.15c0,5.64-16.79,10.2-37.5,10.2s-37.5-4.56-37.5-10.2v4.09c9,2.16,16.73,6,16.73,12.94A8.69,8.69,0,0,1,79.59,31.25Zm-16-21C63.56,4.57,80.31,0,101,0s37.41,4.57,37.41,10.2S121.62,20.4,101,20.4,63.56,15.84,63.56,10.2Zm37.24,37c20.61,0,37.32-4.56,37.33-10.19V26.15c0,5.64-16.72,10.21-37.33,10.21a117.3,117.3,0,0,1-20.67-1.72v7.83a8.72,8.72,0,0,1-.47,2.78h.47v.27A117.37,117.37,0,0,0,100.8,47.23Zm-20.67,12v.27a117.37,117.37,0,0,0,20.67,1.71c20.61,0,37.32-4.56,37.33-10.2V40.15c0,5.64-16.72,10.21-37.33,10.21a117.37,117.37,0,0,1-20.67-1.71v7.74a8.89,8.89,0,0,1-.5,2.86Zm58,3.75V53.16c0,3.4-6.14,6.4-15.53,8.26A128.85,128.85,0,0,1,138.13,63Zm-58,5.34c3.63-2.47,9.05-4.08,14.66-5.13a108.85,108.85,0,0,1-14.66-1.56Zm37.5,19.48c-20.71,0-37.5-4.58-37.5-10.23V88.5c0,5.65,16.79,10.23,37.5,10.23s37.49-4.58,37.5-10.23V77.59C155.13,83.24,138.34,87.82,117.63,87.82Zm-.48-22.46c20.66,0,37.4,4.57,37.4,10.2s-16.74,10.2-37.4,10.2S79.74,81.2,79.74,75.56,96.49,65.36,117.15,65.36Zm.48,36.12c-20.71,0-37.5-4.58-37.5-10.23v10.91c0,5.65,16.79,10.23,37.5,10.23s37.49-4.58,37.5-10.23V91.25C155.13,96.9,138.34,101.48,117.63,101.48Zm0,13.73c-20.71,0-37.5-4.58-37.5-10.23v10.91c0,5.65,16.79,10.23,37.5,10.23s37.49-4.58,37.5-10.23V105C155.13,110.64,138.34,115.21,117.63,115.21Zm0,13.51c-20.71,0-37.5-4.58-37.5-10.23V129.4c0,5.64,16.79,10.22,37.5,10.22s37.49-4.58,37.5-10.22V118.49C155.13,124.14,138.34,128.72,117.63,128.72Z"/></g></g></g></g></g></g></g></svg>