<svg xmlns="http://www.w3.org/2000/svg" viewBox="0 0 52.28 36.6"><defs><style>.cls-1{fill:#fff;}.cls-2{fill:#ce201f;}</style></defs><title>Asset 8</title><g id="Layer_2" data-name="Layer 2"><g id="infographic"><g id="header"><g id="youtube-logo"><path id="bkgrd" class="cls-1" d="M51.2,5.73a6.54,6.54,0,0,0-4.61-4.61C42.5,0,26.14,0,26.14,0S9.78,0,5.68,1.08a6.67,6.67,0,0,0-4.6,4.65C0,9.82,0,18.3,0,18.3s0,8.53,1.08,12.58a6.53,6.53,0,0,0,4.6,4.6C9.82,36.6,26.14,36.6,26.14,36.6s16.36,0,20.45-1.07a6.56,6.56,0,0,0,4.61-4.61c1.08-4.09,1.08-12.57,1.08-12.57S52.32,9.82,51.2,5.73Z"/><polygon id="play" class="cls-2" points="20.43 26.14 34.04 18.3 20.43 10.46 20.43 26.14"/></g></g></g></g></svg>