<svg xmlns="http://www.w3.org/2000/svg" xmlns:xlink="http://www.w3.org/1999/xlink" viewBox="0 0 581 714.81"><defs><style>.cls-1{fill:none;}.cls-2{clip-path:url(#clip-path);}.cls-3{fill:#fff;}.cls-4{fill:#bfc3c5;}.cls-5{fill:red;}</style><clipPath id="clip-path" transform="translate(0 -20)"><rect class="cls-1" width="581" height="734"/></clipPath></defs><title>Asset 31</title><g id="Layer_2" data-name="Layer 2"><g id="infographic"><g id="popular"><g id="popular-2" data-name="popular"><g id="phone"><g id="phone-2" data-name="phone"><g class="cls-2"><g id="phone-3" data-name="phone"><path id="frame" class="cls-3" d="M0,734V107C0,59.16,37.35,20,83,20H498c45.65,0,83,39.16,83,87V734" transform="translate(0 -20)"/><path id="screen" d="M29,734V154a18.09,18.09,0,0,1,18-18H534a18.1,18.1,0,0,1,18,18.05V734.81" transform="translate(0 -20)"/><g id="top"><path id="speaker" class="cls-4" d="M248.37,78H396.3C409.85,78,421,84.75,421,93s-11.1,15-24.65,15H248.37c-13.56,0-24.66-6.75-24.66-15S234.81,78,248.37,78Z" transform="translate(0 -20)"/><circle id="camera" class="cls-4" cx="176" cy="73" r="15"/></g></g></g></g><g id="youtube"><g id="youtube-logo"><path class="cls-5" d="M222,460.66a14.64,14.64,0,0,0-10.29-10.3c-9.14-2.5-45.69-2.5-45.69-2.5s-36.56,0-45.7,2.41A14.92,14.92,0,0,0,110,460.66c-2.4,9.13-2.4,28.08-2.4,28.08s0,19.05,2.4,28.09a14.66,14.66,0,0,0,10.29,10.3c9.24,2.5,45.7,2.5,45.7,2.5s36.55,0,45.69-2.41A14.64,14.64,0,0,0,222,516.93c2.41-9.14,2.41-28.09,2.41-28.09S224.45,469.79,222,460.66Z" transform="translate(0 -20)"/><polygon class="cls-3" points="154 486.25 184.4 468.74 154 451.24 154 486.25"/></g><g id="youtube-logo-2" data-name="youtube-logo"><path class="cls-3" d="M277.36,522.36a12.45,12.45,0,0,1-4.91-7.32A48,48,0,0,1,271,501.93v-7.42a45.29,45.29,0,0,1,1.64-13.3,13.76,13.76,0,0,1,5.2-7.33,17,17,0,0,1,9.35-2.31,16.34,16.34,0,0,1,9.16,2.31,13.38,13.38,0,0,1,5,7.33,44.4,44.4,0,0,1,1.64,13.3v7.42a45,45,0,0,1-1.54,13.2,13.38,13.38,0,0,1-5,7.33c-2.32,1.54-5.5,2.31-9.45,2.31S279.67,523.91,277.36,522.36Zm12.74-9.18c.63-1.53.9-4.14.9-7.64V490.62a22.45,22.45,0,0,0-.9-7.55,3.22,3.22,0,0,0-6.2,0,22.45,22.45,0,0,0-.9,7.55v14.92c0,3.5.27,6.11.9,7.64a3.16,3.16,0,0,0,3.14,2.34A3.1,3.1,0,0,0,290.1,513.18Z" transform="translate(0 -20)"/><path class="cls-3" d="M455,502.19v2.6a71,71,0,0,0,.28,7.41,6.2,6.2,0,0,0,1.24,3.56,3.29,3.29,0,0,0,2.84,1.15,3.54,3.54,0,0,0,3.51-2c.66-1.35.95-3.56,1-6.73l9.77.57a9.57,9.57,0,0,1,.1,1.83c0,4.71-1.24,8.27-3.8,10.58s-6.16,3.47-10.81,3.47c-5.59,0-9.48-1.83-11.76-5.39s-3.41-9-3.41-16.55v-8.94c0-7.7,1.14-13.28,3.5-16.84s6.34-5.29,11.93-5.29c3.88,0,6.9.77,9,2.22a11.77,11.77,0,0,1,4.35,6.73,50.12,50.12,0,0,1,1.23,12.7V502H455Zm1.36-21.91a7.71,7.71,0,0,0-1.09,3.56q-.27,2.46-.27,7.5V495h8v-3.66q0-4.9-.27-7.5a6.89,6.89,0,0,0-1.18-3.56,3.22,3.22,0,0,0-2.55-1.06A2.71,2.71,0,0,0,456.36,480.28Z" transform="translate(0 -20)"/><path class="cls-3" d="M248.9,501l-13-47h11.72l4.48,20.83q1.68,7.71,2.52,13.17h.28c.38-2.62,1.22-6.91,2.53-13.08L262.14,454h10.72L260,501.34V524H249V501Z" transform="translate(0 -20)"/><path class="cls-3" d="M340,472v52h-8.68l-.92-6H330c-2.4,4.71-6.15,7.12-11.06,7.12-3.36,0-5.86-1.16-7.5-3.37s-2.4-5.67-2.4-10.48V473h11v37.61a12,12,0,0,0,.75,4.91A2.53,2.53,0,0,0,323.2,517a4.77,4.77,0,0,0,2.82-1,4.71,4.71,0,0,0,2-2.31V472Z" transform="translate(0 -20)"/><path class="cls-3" d="M400,472v52h-8.68l-.92-6H389c-2.4,4.71-6.15,7.12-11.06,7.12-3.36,0-5.86-1.16-7.5-3.37s-2.4-5.67-2.4-10.48V473h12v37.61a12,12,0,0,0,.75,4.91A2.53,2.53,0,0,0,383.2,517a4.77,4.77,0,0,0,2.82-1,4.71,4.71,0,0,0,2-2.31V472Z" transform="translate(0 -20)"/><path class="cls-3" d="M371,463H360v61H349V463H337V453h34Z" transform="translate(0 -20)"/><path class="cls-3" d="M436.94,480.7c-.68-3.28-1.83-5.59-3.38-7a9.19,9.19,0,0,0-6.46-2.22,10.42,10.42,0,0,0-6,1.83,11.82,11.82,0,0,0-4.25,4.73H418V451H407v73h9.9l1.2-5h-1.52a9.83,9.83,0,0,0,4.06,4.15,12.57,12.57,0,0,0,6,1.54,9,9,0,0,0,8.58-5.4c1.84-3.57,2.8-9.26,2.8-16.88V494.3A78.18,78.18,0,0,0,436.94,480.7Zm-10,21.3a62.11,62.11,0,0,1-.51,8.75,9.5,9.5,0,0,1-1.61,4.52,4,4,0,0,1-3,1.35A5.22,5.22,0,0,1,419,516a5.75,5.75,0,0,1-2-2v-29a7.8,7.8,0,0,1,2.12-3.47,5,5,0,0,1,3.23-1.34,3.32,3.32,0,0,1,2.83,1.34A10.75,10.75,0,0,1,426.6,486a74.62,74.62,0,0,1,.4,9.24V502Z" transform="translate(0 -20)"/></g></g></g></g></g></g></g></svg>