<svg xmlns="http://www.w3.org/2000/svg" xmlns:xlink="http://www.w3.org/1999/xlink" viewBox="0 0 1045.62 541.66"><defs><style>.cls-1,.cls-10,.cls-12,.cls-15{fill:none;}.cls-2,.cls-4{fill:#fff;}.cls-3{fill:#ce201f;}.cls-4{font-size:30px;font-family:Roboto-Regular, Roboto;}.cls-5{letter-spacing:-0.03em;}.cls-6{letter-spacing:-0.05em;}.cls-7{fill:#941614;}.cls-8{letter-spacing:-0.02em;}.cls-9{clip-path:url(#clip-path);}.cls-10{stroke:#fff;}.cls-10,.cls-12,.cls-15{stroke-miterlimit:10;}.cls-10,.cls-12{stroke-width:3px;}.cls-11{clip-path:url(#clip-path-2);}.cls-12{stroke:#ce201f;}.cls-13{clip-path:url(#clip-path-3);}.cls-14{clip-path:url(#clip-path-4);}.cls-15{stroke:#941614;stroke-width:10px;}</style><clipPath id="clip-path"><path id="inner-slash" class="cls-1" d="M242.17,57.86h.5a27.75,27.75,0,0,1,27.75,27.75V378.86a0,0,0,0,1,0,0h-56a0,0,0,0,1,0,0V85.61a27.75,27.75,0,0,1,27.75-27.75Z"/></clipPath><clipPath id="clip-path-2"><path id="inner-slash-2" data-name="inner-slash" class="cls-2" d="M428.17,226.86h.5a27.75,27.75,0,0,1,27.75,27.75V378.86a0,0,0,0,1,0,0h-56a0,0,0,0,1,0,0V254.61A27.75,27.75,0,0,1,428.17,226.86Z"/></clipPath><clipPath id="clip-path-3"><path id="inner-slash-3" data-name="inner-slash" class="cls-2" d="M627.17,258.86h.5a27.75,27.75,0,0,1,27.75,27.75v92.25a0,0,0,0,1,0,0h-56a0,0,0,0,1,0,0V286.61a27.75,27.75,0,0,1,27.75-27.75Z"/></clipPath><clipPath id="clip-path-4"><path id="inner-slash-4" data-name="inner-slash" class="cls-2" d="M809.17,303.86h.5a27.75,27.75,0,0,1,27.75,27.75v47.25a0,0,0,0,1,0,0h-56a0,0,0,0,1,0,0V331.61a27.75,27.75,0,0,1,27.75-27.75Z"/></clipPath></defs><title>Asset 15</title><g id="Layer_2" data-name="Layer 2"><g id="infographic"><g id="app_ranking" data-name="app ranking"><g id="Apps_Ranking" data-name="Apps Ranking"><g id="icons"><g id="youtube"><g id="youtube-2" data-name="youtube"><g id="youtube-logo"><path id="bkgrd" class="cls-2" d="M276.34,441.2a9.23,9.23,0,0,0-6.48-6.49c-5.76-1.57-28.8-1.57-28.8-1.57s-23,0-28.79,1.51a9.41,9.41,0,0,0-6.49,6.55c-1.52,5.76-1.52,17.7-1.52,17.7s0,12,1.52,17.7a9.23,9.23,0,0,0,6.49,6.49c5.82,1.57,28.79,1.57,28.79,1.57s23,0,28.8-1.51a9.23,9.23,0,0,0,6.48-6.49c1.52-5.76,1.52-17.7,1.52-17.7S277.92,447,276.34,441.2Z"/><polygon id="play" class="cls-3" points="233.42 469.93 252.57 458.9 233.42 447.87 233.42 469.93"/></g><text class="cls-4" transform="translate(182.82 528.16)"><tspan class="cls-5">Y</tspan><tspan x="17.07" y="0">ou</tspan><tspan class="cls-6" x="50.71" y="0">T</tspan><tspan x="67.22" y="0">ube</tspan></text></g><g id="crown"><circle id="dark-red" class="cls-7" cx="203.42" cy="433.86" r="19"/><g id="crown-2" data-name="crown"><path class="cls-2" d="M197.86,443.36a4.94,4.94,0,0,1-4.94-4.94V426.86a.5.5,0,0,1,.32-.46.58.58,0,0,1,.18,0,.49.49,0,0,1,.38.18l4.27,4.91,4.48-4.92a.48.48,0,0,1,.37-.17.5.5,0,0,1,.37.17l4.5,4.94,4.27-4.29a.51.51,0,0,1,.36-.15.43.43,0,0,1,.19,0,.5.5,0,0,1,.31.46v10.89a5,5,0,0,1-4.95,4.94Z"/><path class="cls-2" d="M202.92,426.86l4.86,5.34,4.64-4.67v10.89a4.44,4.44,0,0,1-4.45,4.44H197.86a4.44,4.44,0,0,1-4.44-4.44V426.86l4.64,5.34,4.86-5.34m-9.5-1a1,1,0,0,0-.35.07,1,1,0,0,0-.65.93v11.56a5.45,5.45,0,0,0,5.44,5.44H208a5.45,5.45,0,0,0,5.45-5.44V427.53a1,1,0,0,0-1-1,1,1,0,0,0-.71.3l-3.9,3.92-4.15-4.56a1,1,0,0,0-1.48,0l-4.1,4.5-3.91-4.48a1,1,0,0,0-.75-.35Z"/></g></g></g><g id="facebook"><text class="cls-4" transform="translate(560.09 528.16)"><tspan class="cls-8">F</tspan><tspan x="16.08" y="0">aceBook</tspan></text><g id="facebook-2" data-name="facebook"><path id="Blue" class="cls-2" d="M654.42,482.75V432a3.13,3.13,0,0,0-3.13-3.13H601.53a3.12,3.12,0,0,0-3.11,3.12v50.76a3.13,3.13,0,0,0,3.13,3.12H651.3A3.12,3.12,0,0,0,654.42,482.75Z"/><path id="f" class="cls-3" d="M637.42,485.86v-21h7.72l1.16-9h-8.88v-5.67c0-2.57.71-4.33,4.39-4.33h4.61v-7.65a65.24,65.24,0,0,0-6.75-.33c-6.68,0-11.25,4-11.25,11.3v6.68h-7v9h7v21Z"/></g></g><g id="messenger"><text class="cls-4" transform="translate(354.05 528.16)">Messenger</text><g id="messenger-2" data-name="messenger"><path id="white" class="cls-2" d="M409.42,475.46v10.41l9.72-5.53a31.09,31.09,0,0,0,8.58,1.2c16,0,29-12.11,29-27s-13-27-29-27-29,12.11-29,27a26.3,26.3,0,0,0,10.68,21Z"/><path id="light" class="cls-3" d="M425.13,447.09,409.5,463.64l14.22-7.8,7.43,7.8,15.54-16.55-14.06,7.67Z"/></g></g><g id="others"><text class="cls-4" transform="translate(763.89 528.16)">Others</text><path id="white-2" data-name="white" class="cls-2" d="M808.12,425.12a31.77,31.77,0,1,0,31.77,31.77A31.81,31.81,0,0,0,808.12,425.12Zm0,51.19a19.42,19.42,0,1,1,19.41-19.42A19.41,19.41,0,0,1,808.12,476.31Z"/></g></g><g id="graph"><g id="graph-2" data-name="graph"><g id="bar"><path id="dark-red-2" data-name="dark-red" class="cls-7" d="M241.42,44.86h0a38,38,0,0,1,38,38v297a0,0,0,0,1,0,0h-76a0,0,0,0,1,0,0v-297a38,38,0,0,1,38-38Z"/><g id="slash"><g class="cls-9"><g id="white-3" data-name="white"><line id="white-4" data-name="white" class="cls-10" x1="247.06" y1="49.66" x2="1.06" y2="295.66"/><line id="white-5" data-name="white" class="cls-10" x1="257.06" y1="54.66" x2="11.06" y2="300.66"/><line id="white-6" data-name="white" class="cls-10" x1="267.06" y1="59.66" x2="21.06" y2="305.66"/><line id="white-7" data-name="white" class="cls-10" x1="277.06" y1="64.66" x2="31.06" y2="310.66"/><line id="white-8" data-name="white" class="cls-10" x1="287.06" y1="69.66" x2="41.06" y2="315.66"/><line id="white-9" data-name="white" class="cls-10" x1="297.06" y1="74.66" x2="51.06" y2="320.66"/><line id="white-10" data-name="white" class="cls-10" x1="307.06" y1="79.66" x2="61.06" y2="325.66"/><line id="white-11" data-name="white" class="cls-10" x1="317.06" y1="84.66" x2="71.06" y2="330.66"/><line id="white-12" data-name="white" class="cls-10" x1="327.06" y1="89.66" x2="81.06" y2="335.66"/><line id="white-13" data-name="white" class="cls-10" x1="337.06" y1="94.66" x2="91.06" y2="340.66"/><line id="white-14" data-name="white" class="cls-10" x1="347.06" y1="99.66" x2="101.06" y2="345.66"/><line id="white-15" data-name="white" class="cls-10" x1="357.06" y1="104.66" x2="111.06" y2="350.66"/><line id="white-16" data-name="white" class="cls-10" x1="367.06" y1="109.66" x2="121.06" y2="355.66"/><line id="white-17" data-name="white" class="cls-10" x1="377.06" y1="114.66" x2="131.06" y2="360.66"/><line id="white-18" data-name="white" class="cls-10" x1="387.06" y1="119.66" x2="141.06" y2="365.66"/><line id="white-19" data-name="white" class="cls-10" x1="397.06" y1="124.66" x2="151.06" y2="370.66"/><line id="white-20" data-name="white" class="cls-10" x1="407.06" y1="129.66" x2="161.06" y2="375.66"/><line id="white-21" data-name="white" class="cls-10" x1="417.06" y1="134.66" x2="171.06" y2="380.66"/><line id="white-22" data-name="white" class="cls-10" x1="427.06" y1="139.66" x2="181.06" y2="385.66"/><line id="white-23" data-name="white" class="cls-10" x1="437.06" y1="144.66" x2="191.06" y2="390.66"/><line id="white-24" data-name="white" class="cls-10" x1="447.06" y1="149.66" x2="201.06" y2="395.66"/><line id="white-25" data-name="white" class="cls-10" x1="457.06" y1="154.66" x2="211.06" y2="400.66"/><line id="white-26" data-name="white" class="cls-10" x1="467.06" y1="159.66" x2="221.06" y2="405.66"/><line id="white-27" data-name="white" class="cls-10" x1="477.06" y1="164.66" x2="231.06" y2="410.66"/></g></g></g></g><g id="bar2"><path id="dark-red-3" data-name="dark-red" class="cls-7" d="M428.42,217.86h0a38,38,0,0,1,38,38v124a0,0,0,0,1,0,0h-76a0,0,0,0,1,0,0v-124a38,38,0,0,1,38-38Z"/><g id="slash-2" data-name="slash"><path id="inner-slash-5" data-name="inner-slash" class="cls-2" d="M428.17,226.86h.5a27.75,27.75,0,0,1,27.75,27.75V378.86a0,0,0,0,1,0,0h-56a0,0,0,0,1,0,0V254.61A27.75,27.75,0,0,1,428.17,226.86Z"/><g class="cls-11"><g id="white-28" data-name="white"><line id="white-29" data-name="white" class="cls-12" x1="433.72" y1="100.89" x2="187.72" y2="308.7"/><line id="white-30" data-name="white" class="cls-12" x1="443.72" y1="105.11" x2="197.72" y2="312.93"/><line id="white-31" data-name="white" class="cls-12" x1="453.72" y1="109.34" x2="207.72" y2="317.15"/><line id="white-32" data-name="white" class="cls-12" x1="463.72" y1="113.56" x2="217.72" y2="321.37"/><line id="white-33" data-name="white" class="cls-12" x1="473.72" y1="117.78" x2="227.72" y2="325.6"/><line id="white-34" data-name="white" class="cls-12" x1="483.72" y1="122.01" x2="237.72" y2="329.82"/><line id="white-35" data-name="white" class="cls-12" x1="493.72" y1="126.23" x2="247.72" y2="334.05"/><line id="white-36" data-name="white" class="cls-12" x1="503.72" y1="130.46" x2="257.72" y2="338.27"/><line id="white-37" data-name="white" class="cls-12" x1="513.72" y1="134.68" x2="267.72" y2="342.49"/><line id="white-38" data-name="white" class="cls-12" x1="523.72" y1="138.9" x2="277.72" y2="346.72"/><line id="white-39" data-name="white" class="cls-12" x1="533.72" y1="143.13" x2="287.72" y2="350.94"/><line id="white-40" data-name="white" class="cls-12" x1="543.72" y1="147.35" x2="297.72" y2="355.17"/><line id="white-41" data-name="white" class="cls-12" x1="553.72" y1="151.57" x2="307.72" y2="359.39"/><line id="white-42" data-name="white" class="cls-12" x1="563.72" y1="155.8" x2="317.72" y2="363.61"/><line id="white-43" data-name="white" class="cls-12" x1="573.72" y1="160.02" x2="327.72" y2="367.84"/><line id="white-44" data-name="white" class="cls-12" x1="583.72" y1="164.25" x2="337.72" y2="372.06"/><line id="white-45" data-name="white" class="cls-12" x1="593.72" y1="168.47" x2="347.72" y2="376.28"/><line id="white-46" data-name="white" class="cls-12" x1="603.72" y1="172.69" x2="357.72" y2="380.51"/><line id="white-47" data-name="white" class="cls-12" x1="613.72" y1="176.92" x2="367.72" y2="384.73"/><line id="white-48" data-name="white" class="cls-12" x1="623.72" y1="181.14" x2="377.72" y2="388.96"/><line id="white-49" data-name="white" class="cls-12" x1="633.72" y1="185.37" x2="387.72" y2="393.18"/><line id="white-50" data-name="white" class="cls-12" x1="643.72" y1="189.59" x2="397.72" y2="397.4"/><line id="white-51" data-name="white" class="cls-12" x1="653.72" y1="193.81" x2="407.72" y2="401.63"/><line id="white-52" data-name="white" class="cls-12" x1="663.72" y1="198.04" x2="417.72" y2="405.85"/></g></g></g></g><g id="bar3"><path id="dark-red-4" data-name="dark-red" class="cls-7" d="M626.42,249.86h0a38,38,0,0,1,38,38v92a0,0,0,0,1,0,0h-76a0,0,0,0,1,0,0v-92A38,38,0,0,1,626.42,249.86Z"/><g id="slash-3" data-name="slash"><path id="inner-slash-6" data-name="inner-slash" class="cls-2" d="M627.17,258.86h.5a27.75,27.75,0,0,1,27.75,27.75v92.25a0,0,0,0,1,0,0h-56a0,0,0,0,1,0,0V286.61a27.75,27.75,0,0,1,27.75-27.75Z"/><g class="cls-13"><g id="white-53" data-name="white"><line id="white-54" data-name="white" class="cls-12" x1="632.12" y1="100.89" x2="386.12" y2="308.7"/><line id="white-55" data-name="white" class="cls-12" x1="642.12" y1="105.11" x2="396.12" y2="312.93"/><line id="white-56" data-name="white" class="cls-12" x1="652.12" y1="109.34" x2="406.12" y2="317.15"/><line id="white-57" data-name="white" class="cls-12" x1="662.12" y1="113.56" x2="416.12" y2="321.37"/><line id="white-58" data-name="white" class="cls-12" x1="672.12" y1="117.78" x2="426.12" y2="325.6"/><line id="white-59" data-name="white" class="cls-12" x1="682.12" y1="122.01" x2="436.12" y2="329.82"/><line id="white-60" data-name="white" class="cls-12" x1="692.12" y1="126.23" x2="446.12" y2="334.05"/><line id="white-61" data-name="white" class="cls-12" x1="702.12" y1="130.46" x2="456.12" y2="338.27"/><line id="white-62" data-name="white" class="cls-12" x1="712.12" y1="134.68" x2="466.12" y2="342.49"/><line id="white-63" data-name="white" class="cls-12" x1="722.12" y1="138.9" x2="476.12" y2="346.72"/><line id="white-64" data-name="white" class="cls-12" x1="732.12" y1="143.13" x2="486.12" y2="350.94"/><line id="white-65" data-name="white" class="cls-12" x1="742.12" y1="147.35" x2="496.12" y2="355.17"/><line id="white-66" data-name="white" class="cls-12" x1="752.12" y1="151.57" x2="506.12" y2="359.39"/><line id="white-67" data-name="white" class="cls-12" x1="762.12" y1="155.8" x2="516.12" y2="363.61"/><line id="white-68" data-name="white" class="cls-12" x1="772.12" y1="160.02" x2="526.12" y2="367.84"/><line id="white-69" data-name="white" class="cls-12" x1="782.12" y1="164.25" x2="536.12" y2="372.06"/><line id="white-70" data-name="white" class="cls-12" x1="792.12" y1="168.47" x2="546.12" y2="376.28"/><line id="white-71" data-name="white" class="cls-12" x1="802.12" y1="172.69" x2="556.12" y2="380.51"/><line id="white-72" data-name="white" class="cls-12" x1="812.12" y1="176.92" x2="566.12" y2="384.73"/><line id="white-73" data-name="white" class="cls-12" x1="822.12" y1="181.14" x2="576.12" y2="388.96"/><line id="white-74" data-name="white" class="cls-12" x1="832.12" y1="185.37" x2="586.12" y2="393.18"/><line id="white-75" data-name="white" class="cls-12" x1="842.12" y1="189.59" x2="596.12" y2="397.4"/><line id="white-76" data-name="white" class="cls-12" x1="852.12" y1="193.81" x2="606.12" y2="401.63"/><line id="white-77" data-name="white" class="cls-12" x1="862.12" y1="198.04" x2="616.12" y2="405.85"/></g></g></g></g><g id="bar4"><path id="dark-red-5" data-name="dark-red" class="cls-7" d="M808.42,294.86h0a38,38,0,0,1,38,38v47a0,0,0,0,1,0,0h-76a0,0,0,0,1,0,0v-47A38,38,0,0,1,808.42,294.86Z"/><g id="slash-4" data-name="slash"><path id="inner-slash-7" data-name="inner-slash" class="cls-2" d="M809.17,303.86h.5a27.75,27.75,0,0,1,27.75,27.75v47.25a0,0,0,0,1,0,0h-56a0,0,0,0,1,0,0V331.61a27.75,27.75,0,0,1,27.75-27.75Z"/><g class="cls-14"><g id="white-78" data-name="white"><line id="white-79" data-name="white" class="cls-12" x1="814.65" y1="100.89" x2="568.65" y2="308.7"/><line id="white-80" data-name="white" class="cls-12" x1="824.65" y1="105.11" x2="578.65" y2="312.93"/><line id="white-81" data-name="white" class="cls-12" x1="834.65" y1="109.34" x2="588.65" y2="317.15"/><line id="white-82" data-name="white" class="cls-12" x1="844.65" y1="113.56" x2="598.65" y2="321.37"/><line id="white-83" data-name="white" class="cls-12" x1="854.65" y1="117.78" x2="608.65" y2="325.6"/><line id="white-84" data-name="white" class="cls-12" x1="864.65" y1="122.01" x2="618.65" y2="329.82"/><line id="white-85" data-name="white" class="cls-12" x1="874.65" y1="126.23" x2="628.65" y2="334.05"/><line id="white-86" data-name="white" class="cls-12" x1="884.65" y1="130.46" x2="638.65" y2="338.27"/><line id="white-87" data-name="white" class="cls-12" x1="894.65" y1="134.68" x2="648.65" y2="342.49"/><line id="white-88" data-name="white" class="cls-12" x1="904.65" y1="138.9" x2="658.65" y2="346.72"/><line id="white-89" data-name="white" class="cls-12" x1="914.65" y1="143.13" x2="668.65" y2="350.94"/><line id="white-90" data-name="white" class="cls-12" x1="924.65" y1="147.35" x2="678.65" y2="355.17"/><line id="white-91" data-name="white" class="cls-12" x1="934.65" y1="151.57" x2="688.65" y2="359.39"/><line id="white-92" data-name="white" class="cls-12" x1="944.65" y1="155.8" x2="698.65" y2="363.61"/><line id="white-93" data-name="white" class="cls-12" x1="954.65" y1="160.02" x2="708.65" y2="367.84"/><line id="white-94" data-name="white" class="cls-12" x1="964.65" y1="164.25" x2="718.65" y2="372.06"/><line id="white-95" data-name="white" class="cls-12" x1="974.65" y1="168.47" x2="728.65" y2="376.28"/><line id="white-96" data-name="white" class="cls-12" x1="984.65" y1="172.69" x2="738.65" y2="380.51"/><line id="white-97" data-name="white" class="cls-12" x1="994.65" y1="176.92" x2="748.65" y2="384.73"/><line id="white-98" data-name="white" class="cls-12" x1="1004.65" y1="181.14" x2="758.65" y2="388.96"/><line id="white-99" data-name="white" class="cls-12" x1="1014.65" y1="185.37" x2="768.65" y2="393.18"/><line id="white-100" data-name="white" class="cls-12" x1="1024.65" y1="189.59" x2="778.65" y2="397.4"/><line id="white-101" data-name="white" class="cls-12" x1="1034.65" y1="193.81" x2="788.65" y2="401.63"/><line id="white-102" data-name="white" class="cls-12" x1="1044.65" y1="198.04" x2="798.65" y2="405.85"/></g></g></g></g><line id="under-bar" class="cls-15" x1="138.42" y1="380.86" x2="914.42" y2="380.86"/></g><text class="cls-4" transform="translate(215.79 25.66)">129</text><text class="cls-4" transform="translate(411.38 203.83)">43</text><text class="cls-4" transform="translate(609.28 230.16)">33</text><text class="cls-4" transform="translate(791.28 281.66)">22</text></g></g></g></g></g></svg>