<svg xmlns="http://www.w3.org/2000/svg" xmlns:xlink="http://www.w3.org/1999/xlink" viewBox="0 0 1046.28 541.66"><defs><style>.cls-1,.cls-11,.cls-13,.cls-16{fill:none;}.cls-2,.cls-4{fill:#fff;}.cls-3{fill:#ce201f;}.cls-4{font-size:30px;font-family:Roboto-Regular, Roboto;}.cls-5{letter-spacing:-0.03em;}.cls-6{letter-spacing:-0.05em;}.cls-7{fill:#941614;}.cls-8{letter-spacing:-0.02em;}.cls-9{letter-spacing:-0.02em;}.cls-10{clip-path:url(#clip-path);}.cls-11{stroke:#fff;}.cls-11,.cls-13,.cls-16{stroke-miterlimit:10;}.cls-11,.cls-13{stroke-width:3px;}.cls-12{clip-path:url(#clip-path-2);}.cls-13{stroke:#ce201f;}.cls-14{clip-path:url(#clip-path-3);}.cls-15{clip-path:url(#clip-path-4);}.cls-16{stroke:#941614;stroke-width:10px;}</style><clipPath id="clip-path"><path id="inner-slash" class="cls-1" d="M242.05,57.66h.5A27.75,27.75,0,0,1,270.3,85.41V378.66a0,0,0,0,1,0,0h-56a0,0,0,0,1,0,0V85.41a27.75,27.75,0,0,1,27.75-27.75Z"/></clipPath><clipPath id="clip-path-2"><path id="inner-slash-2" data-name="inner-slash" class="cls-2" d="M429.05,107.66h.5a27.75,27.75,0,0,1,27.75,27.75V378.66a0,0,0,0,1,0,0h-56a0,0,0,0,1,0,0V135.41A27.75,27.75,0,0,1,429.05,107.66Z"/></clipPath><clipPath id="clip-path-3"><path id="inner-slash-3" data-name="inner-slash" class="cls-2" d="M628.05,258.66h.5a27.75,27.75,0,0,1,27.75,27.75v92.25a0,0,0,0,1,0,0h-56a0,0,0,0,1,0,0V286.41A27.75,27.75,0,0,1,628.05,258.66Z"/></clipPath><clipPath id="clip-path-4"><path id="inner-slash-4" data-name="inner-slash" class="cls-2" d="M810.05,314.66h.5a27.75,27.75,0,0,1,27.75,27.75v36.25a0,0,0,0,1,0,0h-56a0,0,0,0,1,0,0V342.41a27.75,27.75,0,0,1,27.75-27.75Z"/></clipPath></defs><title>Asset 14</title><g id="Layer_2" data-name="Layer 2"><g id="infographic"><g id="cost_ranking" data-name="cost ranking"><g id="cost_ranking-2" data-name="cost ranking"><g id="icons"><g id="youtube"><g id="youtube-2" data-name="youtube"><g id="youtube-logo"><path id="bkgrd" class="cls-2" d="M276.34,441.2a9.23,9.23,0,0,0-6.48-6.49c-5.76-1.57-28.8-1.57-28.8-1.57s-23,0-28.79,1.51a9.41,9.41,0,0,0-6.49,6.55c-1.52,5.76-1.52,17.7-1.52,17.7s0,12,1.52,17.7a9.23,9.23,0,0,0,6.49,6.49c5.82,1.57,28.79,1.57,28.79,1.57s23,0,28.8-1.51a9.23,9.23,0,0,0,6.48-6.49c1.52-5.76,1.52-17.7,1.52-17.7S277.92,447,276.34,441.2Z"/><polygon id="play" class="cls-3" points="233.3 469.93 252.46 458.9 233.3 447.87 233.3 469.93"/></g><text class="cls-4" transform="translate(182.82 528.16)"><tspan class="cls-5">Y</tspan><tspan x="17.07" y="0">ou</tspan><tspan class="cls-6" x="50.71" y="0">T</tspan><tspan x="67.22" y="0">ube</tspan></text></g><g id="crown"><circle id="dark-red" class="cls-7" cx="203.3" cy="433.66" r="19"/><g id="crown-2" data-name="crown"><path class="cls-2" d="M197.75,443.16a5,5,0,0,1-4.95-4.94V426.66a.49.49,0,0,1,.33-.46.33.33,0,0,1,.17,0,.49.49,0,0,1,.38.18l4.27,4.91,4.48-4.92a.5.5,0,0,1,.37-.17.48.48,0,0,1,.37.17l4.51,4.94L212,427a.47.47,0,0,1,.35-.15.41.41,0,0,1,.19,0,.5.5,0,0,1,.31.46v10.89a4.94,4.94,0,0,1-4.94,4.94Z"/><path class="cls-2" d="M202.8,426.66l4.86,5.34,4.64-4.67v10.89a4.44,4.44,0,0,1-4.44,4.44H197.75a4.44,4.44,0,0,1-4.45-4.44V426.66l4.64,5.34,4.86-5.34m-9.5-1a.87.87,0,0,0-.35.07,1,1,0,0,0-.65.93v11.56a5.45,5.45,0,0,0,5.45,5.44h10.11a5.45,5.45,0,0,0,5.44-5.44V427.33a1,1,0,0,0-1-1,1,1,0,0,0-.71.3l-3.9,3.92L203.54,426a1,1,0,0,0-1.48,0l-4.1,4.5-3.9-4.48a1,1,0,0,0-.76-.35Z"/></g></g></g><g id="facebook"><text class="cls-4" transform="translate(362.92 528.16)"><tspan class="cls-8">F</tspan><tspan x="16.08" y="0">aceBook</tspan></text><g id="facebook-2" data-name="facebook"><path id="Blue" class="cls-2" d="M457.3,482.55V431.79a3.13,3.13,0,0,0-3.13-3.13H404.42a3.12,3.12,0,0,0-3.12,3.12v50.76a3.13,3.13,0,0,0,3.13,3.12h49.76A3.11,3.11,0,0,0,457.3,482.55Z"/><path id="f" class="cls-3" d="M440.3,485.66v-21H448l1.16-9H440.3V450c0-2.57.71-4.33,4.39-4.33h4.61V438a65.24,65.24,0,0,0-6.75-.33c-6.68,0-11.25,4-11.25,11.3v6.68h-7v9h7v21Z"/></g></g><g id="instagram"><text class="cls-4" transform="translate(559.43 528.16)">Instag<tspan class="cls-9" x="83.13" y="0">r</tspan><tspan x="92.7" y="0">am</tspan></text><g id="instagram-2" data-name="instagram"><path id="white" class="cls-2" d="M639,427.66H615.59A17.3,17.3,0,0,0,598.3,445v23.42a17.29,17.29,0,0,0,17.29,17.29H639a17.29,17.29,0,0,0,17.29-17.29V445A17.3,17.3,0,0,0,639,427.66ZM650.3,468.3a11.36,11.36,0,0,1-11.36,11.36H615.75a11.45,11.45,0,0,1-11.45-11.45V445.12a11.46,11.46,0,0,1,11.45-11.46h23.1a11.46,11.46,0,0,1,11.45,11.46V468.3Z"/><path id="white-2" data-name="white" class="cls-2" d="M627.09,441.88a15,15,0,1,0,15,15A15,15,0,0,0,627.09,441.88Zm0,24.19a9.18,9.18,0,1,1,9.17-9.18A9.17,9.17,0,0,1,627.09,466.07Z"/><circle id="white-3" data-name="white" class="cls-2" cx="642.13" cy="442" r="3.6"/></g></g><g id="others"><text class="cls-4" transform="translate(765.77 528.16)">Others</text><path id="white-4" data-name="white" class="cls-2" d="M810,425.12a31.77,31.77,0,1,0,31.77,31.77A31.82,31.82,0,0,0,810,425.12Zm0,51.19a19.42,19.42,0,1,1,19.42-19.42A19.41,19.41,0,0,1,810,476.31Z"/></g></g><g id="graph"><g id="graph-2" data-name="graph"><g id="bar"><path id="dark-red-2" data-name="dark-red" class="cls-7" d="M241.3,44.66h0a38,38,0,0,1,38,38v297a0,0,0,0,1,0,0h-76a0,0,0,0,1,0,0v-297a38,38,0,0,1,38-38Z"/><g id="slash"><g class="cls-10"><g id="white-5" data-name="white"><line id="white-6" data-name="white" class="cls-11" x1="247.06" y1="49.66" x2="1.06" y2="295.66"/><line id="white-7" data-name="white" class="cls-11" x1="257.06" y1="54.66" x2="11.06" y2="300.66"/><line id="white-8" data-name="white" class="cls-11" x1="267.06" y1="59.66" x2="21.06" y2="305.66"/><line id="white-9" data-name="white" class="cls-11" x1="277.06" y1="64.66" x2="31.06" y2="310.66"/><line id="white-10" data-name="white" class="cls-11" x1="287.06" y1="69.66" x2="41.06" y2="315.66"/><line id="white-11" data-name="white" class="cls-11" x1="297.06" y1="74.66" x2="51.06" y2="320.66"/><line id="white-12" data-name="white" class="cls-11" x1="307.06" y1="79.66" x2="61.06" y2="325.66"/><line id="white-13" data-name="white" class="cls-11" x1="317.06" y1="84.66" x2="71.06" y2="330.66"/><line id="white-14" data-name="white" class="cls-11" x1="327.06" y1="89.66" x2="81.06" y2="335.66"/><line id="white-15" data-name="white" class="cls-11" x1="337.06" y1="94.66" x2="91.06" y2="340.66"/><line id="white-16" data-name="white" class="cls-11" x1="347.06" y1="99.66" x2="101.06" y2="345.66"/><line id="white-17" data-name="white" class="cls-11" x1="357.06" y1="104.66" x2="111.06" y2="350.66"/><line id="white-18" data-name="white" class="cls-11" x1="367.06" y1="109.66" x2="121.06" y2="355.66"/><line id="white-19" data-name="white" class="cls-11" x1="377.06" y1="114.66" x2="131.06" y2="360.66"/><line id="white-20" data-name="white" class="cls-11" x1="387.06" y1="119.66" x2="141.06" y2="365.66"/><line id="white-21" data-name="white" class="cls-11" x1="397.06" y1="124.66" x2="151.06" y2="370.66"/><line id="white-22" data-name="white" class="cls-11" x1="407.06" y1="129.66" x2="161.06" y2="375.66"/><line id="white-23" data-name="white" class="cls-11" x1="417.06" y1="134.66" x2="171.06" y2="380.66"/><line id="white-24" data-name="white" class="cls-11" x1="427.06" y1="139.66" x2="181.06" y2="385.66"/><line id="white-25" data-name="white" class="cls-11" x1="437.06" y1="144.66" x2="191.06" y2="390.66"/><line id="white-26" data-name="white" class="cls-11" x1="447.06" y1="149.66" x2="201.06" y2="395.66"/><line id="white-27" data-name="white" class="cls-11" x1="457.06" y1="154.66" x2="211.06" y2="400.66"/><line id="white-28" data-name="white" class="cls-11" x1="467.06" y1="159.66" x2="221.06" y2="405.66"/><line id="white-29" data-name="white" class="cls-11" x1="477.06" y1="164.66" x2="231.06" y2="410.66"/></g></g></g></g><g id="bar2"><path id="dark-red-3" data-name="dark-red" class="cls-7" d="M429.3,96.66h0a38,38,0,0,1,38,38v245a0,0,0,0,1,0,0h-76a0,0,0,0,1,0,0v-245A38,38,0,0,1,429.3,96.66Z"/><g id="slash-2" data-name="slash"><path id="inner-slash-5" data-name="inner-slash" class="cls-2" d="M429.05,107.66h.5a27.75,27.75,0,0,1,27.75,27.75V378.66a0,0,0,0,1,0,0h-56a0,0,0,0,1,0,0V135.41A27.75,27.75,0,0,1,429.05,107.66Z"/><g class="cls-12"><g id="white-30" data-name="white"><line id="white-31" data-name="white" class="cls-13" x1="434.47" y1="100.89" x2="188.47" y2="308.7"/><line id="white-32" data-name="white" class="cls-13" x1="444.47" y1="105.11" x2="198.47" y2="312.93"/><line id="white-33" data-name="white" class="cls-13" x1="454.47" y1="109.34" x2="208.47" y2="317.15"/><line id="white-34" data-name="white" class="cls-13" x1="464.47" y1="113.56" x2="218.47" y2="321.37"/><line id="white-35" data-name="white" class="cls-13" x1="474.47" y1="117.78" x2="228.47" y2="325.6"/><line id="white-36" data-name="white" class="cls-13" x1="484.47" y1="122.01" x2="238.47" y2="329.82"/><line id="white-37" data-name="white" class="cls-13" x1="494.47" y1="126.23" x2="248.47" y2="334.05"/><line id="white-38" data-name="white" class="cls-13" x1="504.47" y1="130.46" x2="258.47" y2="338.27"/><line id="white-39" data-name="white" class="cls-13" x1="514.47" y1="134.68" x2="268.47" y2="342.49"/><line id="white-40" data-name="white" class="cls-13" x1="524.47" y1="138.9" x2="278.47" y2="346.72"/><line id="white-41" data-name="white" class="cls-13" x1="534.47" y1="143.13" x2="288.47" y2="350.94"/><line id="white-42" data-name="white" class="cls-13" x1="544.47" y1="147.35" x2="298.47" y2="355.17"/><line id="white-43" data-name="white" class="cls-13" x1="554.47" y1="151.57" x2="308.47" y2="359.39"/><line id="white-44" data-name="white" class="cls-13" x1="564.47" y1="155.8" x2="318.47" y2="363.61"/><line id="white-45" data-name="white" class="cls-13" x1="574.47" y1="160.02" x2="328.47" y2="367.84"/><line id="white-46" data-name="white" class="cls-13" x1="584.47" y1="164.25" x2="338.47" y2="372.06"/><line id="white-47" data-name="white" class="cls-13" x1="594.47" y1="168.47" x2="348.47" y2="376.28"/><line id="white-48" data-name="white" class="cls-13" x1="604.47" y1="172.69" x2="358.47" y2="380.51"/><line id="white-49" data-name="white" class="cls-13" x1="614.47" y1="176.92" x2="368.47" y2="384.73"/><line id="white-50" data-name="white" class="cls-13" x1="624.47" y1="181.14" x2="378.47" y2="388.96"/><line id="white-51" data-name="white" class="cls-13" x1="634.47" y1="185.37" x2="388.47" y2="393.18"/><line id="white-52" data-name="white" class="cls-13" x1="644.47" y1="189.59" x2="398.47" y2="397.4"/><line id="white-53" data-name="white" class="cls-13" x1="654.47" y1="193.81" x2="408.47" y2="401.63"/><line id="white-54" data-name="white" class="cls-13" x1="664.47" y1="198.04" x2="418.47" y2="405.85"/></g></g></g></g><g id="bar3"><path id="dark-red-4" data-name="dark-red" class="cls-7" d="M627.3,249.66h0a38,38,0,0,1,38,38v92a0,0,0,0,1,0,0h-76a0,0,0,0,1,0,0v-92A38,38,0,0,1,627.3,249.66Z"/><g id="slash-3" data-name="slash"><path id="inner-slash-6" data-name="inner-slash" class="cls-2" d="M628.05,258.66h.5a27.75,27.75,0,0,1,27.75,27.75v92.25a0,0,0,0,1,0,0h-56a0,0,0,0,1,0,0V286.41A27.75,27.75,0,0,1,628.05,258.66Z"/><g class="cls-14"><g id="white-55" data-name="white"><line id="white-56" data-name="white" class="cls-13" x1="633.09" y1="100.89" x2="387.09" y2="308.7"/><line id="white-57" data-name="white" class="cls-13" x1="643.09" y1="105.11" x2="397.09" y2="312.93"/><line id="white-58" data-name="white" class="cls-13" x1="653.09" y1="109.34" x2="407.09" y2="317.15"/><line id="white-59" data-name="white" class="cls-13" x1="663.09" y1="113.56" x2="417.09" y2="321.37"/><line id="white-60" data-name="white" class="cls-13" x1="673.09" y1="117.78" x2="427.09" y2="325.6"/><line id="white-61" data-name="white" class="cls-13" x1="683.09" y1="122.01" x2="437.09" y2="329.82"/><line id="white-62" data-name="white" class="cls-13" x1="693.09" y1="126.23" x2="447.09" y2="334.05"/><line id="white-63" data-name="white" class="cls-13" x1="703.09" y1="130.46" x2="457.09" y2="338.27"/><line id="white-64" data-name="white" class="cls-13" x1="713.09" y1="134.68" x2="467.09" y2="342.49"/><line id="white-65" data-name="white" class="cls-13" x1="723.09" y1="138.9" x2="477.09" y2="346.72"/><line id="white-66" data-name="white" class="cls-13" x1="733.09" y1="143.13" x2="487.09" y2="350.94"/><line id="white-67" data-name="white" class="cls-13" x1="743.09" y1="147.35" x2="497.09" y2="355.17"/><line id="white-68" data-name="white" class="cls-13" x1="753.09" y1="151.57" x2="507.09" y2="359.39"/><line id="white-69" data-name="white" class="cls-13" x1="763.09" y1="155.8" x2="517.09" y2="363.61"/><line id="white-70" data-name="white" class="cls-13" x1="773.09" y1="160.02" x2="527.09" y2="367.84"/><line id="white-71" data-name="white" class="cls-13" x1="783.09" y1="164.25" x2="537.09" y2="372.06"/><line id="white-72" data-name="white" class="cls-13" x1="793.09" y1="168.47" x2="547.09" y2="376.28"/><line id="white-73" data-name="white" class="cls-13" x1="803.09" y1="172.69" x2="557.09" y2="380.51"/><line id="white-74" data-name="white" class="cls-13" x1="813.09" y1="176.92" x2="567.09" y2="384.73"/><line id="white-75" data-name="white" class="cls-13" x1="823.09" y1="181.14" x2="577.09" y2="388.96"/><line id="white-76" data-name="white" class="cls-13" x1="833.09" y1="185.37" x2="587.09" y2="393.18"/><line id="white-77" data-name="white" class="cls-13" x1="843.09" y1="189.59" x2="597.09" y2="397.4"/><line id="white-78" data-name="white" class="cls-13" x1="853.09" y1="193.81" x2="607.09" y2="401.63"/><line id="white-79" data-name="white" class="cls-13" x1="863.09" y1="198.04" x2="617.09" y2="405.85"/></g></g></g></g><g id="bar4"><path id="dark-red-5" data-name="dark-red" class="cls-7" d="M810.3,303.66h0a38,38,0,0,1,38,38v38a0,0,0,0,1,0,0h-76a0,0,0,0,1,0,0v-38a38,38,0,0,1,38-38Z"/><g id="slash-4" data-name="slash"><path id="inner-slash-7" data-name="inner-slash" class="cls-2" d="M810.05,314.66h.5a27.75,27.75,0,0,1,27.75,27.75v36.25a0,0,0,0,1,0,0h-56a0,0,0,0,1,0,0V342.41a27.75,27.75,0,0,1,27.75-27.75Z"/><g class="cls-15"><g id="white-80" data-name="white"><line id="white-81" data-name="white" class="cls-13" x1="815.31" y1="100.89" x2="569.31" y2="308.7"/><line id="white-82" data-name="white" class="cls-13" x1="825.31" y1="105.11" x2="579.31" y2="312.93"/><line id="white-83" data-name="white" class="cls-13" x1="835.31" y1="109.34" x2="589.31" y2="317.15"/><line id="white-84" data-name="white" class="cls-13" x1="845.31" y1="113.56" x2="599.31" y2="321.37"/><line id="white-85" data-name="white" class="cls-13" x1="855.31" y1="117.78" x2="609.31" y2="325.6"/><line id="white-86" data-name="white" class="cls-13" x1="865.31" y1="122.01" x2="619.31" y2="329.82"/><line id="white-87" data-name="white" class="cls-13" x1="875.31" y1="126.23" x2="629.31" y2="334.05"/><line id="white-88" data-name="white" class="cls-13" x1="885.31" y1="130.46" x2="639.31" y2="338.27"/><line id="white-89" data-name="white" class="cls-13" x1="895.31" y1="134.68" x2="649.31" y2="342.49"/><line id="white-90" data-name="white" class="cls-13" x1="905.31" y1="138.9" x2="659.31" y2="346.72"/><line id="white-91" data-name="white" class="cls-13" x1="915.31" y1="143.13" x2="669.31" y2="350.94"/><line id="white-92" data-name="white" class="cls-13" x1="925.31" y1="147.35" x2="679.31" y2="355.17"/><line id="white-93" data-name="white" class="cls-13" x1="935.31" y1="151.57" x2="689.31" y2="359.39"/><line id="white-94" data-name="white" class="cls-13" x1="945.31" y1="155.8" x2="699.31" y2="363.61"/><line id="white-95" data-name="white" class="cls-13" x1="955.31" y1="160.02" x2="709.31" y2="367.84"/><line id="white-96" data-name="white" class="cls-13" x1="965.31" y1="164.25" x2="719.31" y2="372.06"/><line id="white-97" data-name="white" class="cls-13" x1="975.31" y1="168.47" x2="729.31" y2="376.28"/><line id="white-98" data-name="white" class="cls-13" x1="985.31" y1="172.69" x2="739.31" y2="380.51"/><line id="white-99" data-name="white" class="cls-13" x1="995.31" y1="176.92" x2="749.31" y2="384.73"/><line id="white-100" data-name="white" class="cls-13" x1="1005.31" y1="181.14" x2="759.31" y2="388.96"/><line id="white-101" data-name="white" class="cls-13" x1="1015.31" y1="185.37" x2="769.31" y2="393.18"/><line id="white-102" data-name="white" class="cls-13" x1="1025.31" y1="189.59" x2="779.31" y2="397.4"/><line id="white-103" data-name="white" class="cls-13" x1="1035.31" y1="193.81" x2="789.31" y2="401.63"/><line id="white-104" data-name="white" class="cls-13" x1="1045.31" y1="198.04" x2="799.31" y2="405.85"/></g></g></g></g><line id="under-bar" class="cls-16" x1="140.3" y1="380.66" x2="916.3" y2="380.66"/></g><text class="cls-4" transform="translate(207.37 25.66)">1168</text><text class="cls-4" transform="translate(395.28 79.66)">1015</text><text class="cls-4" transform="translate(601.82 230.16)">456</text><text class="cls-4" transform="translate(784.74 281.66)">340</text></g></g></g></g></g></svg>