<svg xmlns="http://www.w3.org/2000/svg" viewBox="0 0 829 250"><defs><style>.cls-1{fill:#fff;}.cls-2{fill:#ce201f;}</style></defs><title>Asset 26</title><g id="Layer_2" data-name="Layer 2"><g id="infographic"><g id="popular"><g id="popular-2" data-name="popular"><g id="number-path"><g id="_1" data-name="1"><circle id="white" class="cls-1" cx="23" cy="23" r="23"/><path class="cls-2" d="M26.31,31.9H22.07V15.58L17,17.15V13.71l8.83-3.17h.46Z"/></g><g id="_2" data-name="2"><circle id="white-2" data-name="white" class="cls-1" cx="289" cy="23" r="23"/><path class="cls-2" d="M296.23,31.9H281.61V29l6.9-7.36a16,16,0,0,0,2.1-2.71,4.28,4.28,0,0,0,.68-2.19,3.31,3.31,0,0,0-.71-2.24,2.62,2.62,0,0,0-2.06-.81,2.79,2.79,0,0,0-2.26,1,3.94,3.94,0,0,0-.83,2.6h-4.24a7,7,0,0,1,.93-3.56,6.54,6.54,0,0,1,2.63-2.53,8,8,0,0,1,3.85-.91,7.56,7.56,0,0,1,5.12,1.58,5.6,5.6,0,0,1,1.82,4.47,7.12,7.12,0,0,1-.82,3.22,17.89,17.89,0,0,1-2.81,3.82l-4.85,5.12h9.17Z"/></g><g id="_3" data-name="3"><circle id="white-3" data-name="white" class="cls-1" cx="542" cy="23" r="23"/><path class="cls-2" d="M539.19,19.36h2.25a3.17,3.17,0,0,0,2.39-.81,2.93,2.93,0,0,0,.78-2.13,2.63,2.63,0,0,0-.77-2,3,3,0,0,0-2.12-.72,3.07,3.07,0,0,0-2,.67,2.11,2.11,0,0,0-.82,1.73h-4.24a5.19,5.19,0,0,1,.9-3A6,6,0,0,1,538.05,11a8.54,8.54,0,0,1,3.57-.74,8,8,0,0,1,5.3,1.62,5.51,5.51,0,0,1,1.92,4.46,4.52,4.52,0,0,1-.89,2.69,5.84,5.84,0,0,1-2.35,1.89,5.27,5.27,0,0,1,2.69,1.94,5.21,5.21,0,0,1,.89,3,5.63,5.63,0,0,1-2.07,4.56,8.37,8.37,0,0,1-5.49,1.71,7.9,7.9,0,0,1-5.22-1.68,5.53,5.53,0,0,1-2-4.46h4.23a2.47,2.47,0,0,0,.9,2,3.77,3.77,0,0,0,4.59,0,2.76,2.76,0,0,0,.86-2.12c0-2.13-1.18-3.19-3.52-3.19h-2.24Z"/></g><g id="_4" data-name="4"><circle id="white-4" data-name="white" class="cls-1" cx="806" cy="23" r="23"/><path class="cls-2" d="M811.61,23.87H814v3.41h-2.42V31.9h-4.23V27.28h-8.75l-.19-2.66,8.89-14h4.28Zm-9,0h4.72V16.34l-.28.49Z"/></g><g id="line"><g id="line-2" data-name="line"><g id="line-3" data-name="line"><path class="cls-1" d="M806,64.5a4,4,0,0,1-4-4V53a4,4,0,0,1,8,0v7.5A4,4,0,0,1,806,64.5Z"/><path class="cls-1" d="M759.91,175H750.2a4,4,0,0,1,0-8h9.7c1.7,0,3.37-.05,5-.16a4,4,0,1,1,.53,8C763.62,174.94,761.78,175,759.91,175Zm-19.68,0H725.29a4,4,0,0,1,0-8h14.94a4,4,0,0,1,0,8Zm-24.9,0H700.39a4,4,0,0,1,0-8h14.94a4,4,0,0,1,0,8Zm-24.89,0H675.51a4,4,0,0,1,0-8h14.93a4,4,0,0,1,0,8Zm-24.88,0H650.64a4,4,0,0,1,0-8h14.92a4,4,0,0,1,0,8Zm-24.87,0H625.76a4,4,0,0,1,0-8h14.93a4,4,0,0,1,0,8Zm-24.87,0H600.89a4,4,0,0,1,0-8h14.93a4,4,0,0,1,0,8ZM591,175H576a4,4,0,0,1,0-8h15a4,4,0,0,1,0,8Zm-24.9,0H551.13a4,4,0,0,1,0-8h14.92a4,4,0,0,1,0,8Zm-24.87,0H526.25a4,4,0,0,1,0-8h14.93a4,4,0,0,1,0,8Zm-24.87,0H501.38a4,4,0,0,1,0-8h14.93a4,4,0,0,1,0,8Zm-24.88,0H476.5a4,4,0,0,1,0-8h14.93a4,4,0,1,1,0,8Zm-24.89,0H451.61a4,4,0,0,1,0-8h14.93a4,4,0,0,1,0,8Zm-24.89,0H426.71a4,4,0,0,1,0-8h14.94a4,4,0,0,1,0,8Zm333.28-1.58a4,4,0,0,1-.89-7.9,39.93,39.93,0,0,0,12.48-5,4,4,0,1,1,4.28,6.76,47.79,47.79,0,0,1-15,6.07A3.94,3.94,0,0,1,774.93,173.42Zm21.28-11.93a3.93,3.93,0,0,1-2.66-1,4,4,0,0,1-.32-5.64,33.7,33.7,0,0,0,6.63-11.45,4,4,0,0,1,7.56,2.62,41.73,41.73,0,0,1-8.22,14.16A4,4,0,0,1,796.21,161.49ZM805.8,139a3,3,0,0,1-.42,0,4,4,0,0,1-3.56-4.4,31,31,0,0,0,.19-3.13V120.09a4,4,0,0,1,8,0v10.85c0,.09,0,.26,0,.5a38.81,38.81,0,0,1-.23,4A4,4,0,0,1,805.8,139Zm.2-24.84a4,4,0,0,1-4-4V95.26a4,4,0,1,1,8,0v14.9A4,4,0,0,1,806,114.16Zm0-24.83a4,4,0,0,1-4-4V70.43a4,4,0,0,1,8,0v14.9A4,4,0,0,1,806,89.33Z"/><path class="cls-1" d="M417.5,175H410a4,4,0,0,1,0-8h7.5a4,4,0,0,1,0,8Z"/></g><g id="line-4" data-name="line"><path class="cls-1" d="M542,55.5a4,4,0,0,1-4-4V44a4,4,0,0,1,8,0v7.5A4,4,0,0,1,542,55.5Z"/><path class="cls-1" d="M542,157.32a4,4,0,0,1-4-4V138a4,4,0,1,1,8,0v15.28A4,4,0,0,1,542,157.32Zm0-25.46a4,4,0,0,1-4-4V112.59a4,4,0,0,1,8,0v15.27A4,4,0,0,1,542,131.86Zm0-25.45a4,4,0,0,1-4-4V87.14a4,4,0,1,1,8,0v15.27A4,4,0,0,1,542,106.41ZM542,81a4,4,0,0,1-4-4V61.68a4,4,0,1,1,8,0V77A4,4,0,0,1,542,81Z"/><path class="cls-1" d="M542,175a4,4,0,0,1-4-4v-7.5a4,4,0,0,1,8,0V171A4,4,0,0,1,542,175Z"/></g></g><g id="line-5" data-name="line"><g id="line-6" data-name="line"><path class="cls-1" d="M24,64.5a4,4,0,0,1-4-4V53a4,4,0,0,1,8,0v7.5A4,4,0,0,1,24,64.5Z"/><path class="cls-1" d="M70.09,175c-1.86,0-3.71-.06-5.49-.18a4,4,0,0,1,.53-8c1.6.11,3.27.16,5,.16H79.8a4,4,0,1,1,0,8H70.09Zm333.21,0H388.35a4,4,0,0,1,0-8H403.3a4,4,0,0,1,0,8Zm-24.91,0H363.46a4,4,0,0,1,0-8h14.93a4,4,0,0,1,0,8Zm-24.89,0H338.57a4,4,0,0,1,0-8H353.5a4,4,0,0,1,0,8Zm-24.88,0H313.69a4,4,0,0,1,0-8h14.93a4,4,0,0,1,0,8Zm-24.87,0H288.82a4,4,0,0,1,0-8h14.93a4,4,0,0,1,0,8Zm-24.88,0H264a4,4,0,0,1,0-8h14.92a4,4,0,0,1,0,8ZM254,175H239.05a4,4,0,0,1,0-8H254a4,4,0,0,1,0,8Zm-24.89,0H214.18a4,4,0,0,1,0-8h14.93a4,4,0,0,1,0,8Zm-24.88,0H189.31a4,4,0,0,1,0-8h14.92a4,4,0,1,1,0,8Zm-24.87,0H164.44a4,4,0,0,1,0-8h14.92a4,4,0,0,1,0,8Zm-24.87,0H139.56a4,4,0,0,1,0-8h14.93a4,4,0,0,1,0,8Zm-24.88,0H114.67a4,4,0,0,1,0-8h14.94a4,4,0,0,1,0,8Zm-24.9,0H89.77a4,4,0,1,1,0-8h14.94a4,4,0,0,1,0,8Zm-49.65-1.58a3.92,3.92,0,0,1-.89-.1,47.79,47.79,0,0,1-15-6.07,4,4,0,0,1,4.28-6.76,39.93,39.93,0,0,0,12.48,5,4,4,0,0,1-.9,7.9ZM33.79,161.49a4,4,0,0,1-3-1.33A41.59,41.59,0,0,1,22.58,146a4,4,0,0,1,7.56-2.62,33.7,33.7,0,0,0,6.63,11.45,4,4,0,0,1-3,6.66ZM24.2,139a4,4,0,0,1-4-3.58,38.81,38.81,0,0,1-.23-4c0-.24,0-.41,0-.5V120.09a4,4,0,0,1,8,0v11.35a31,31,0,0,0,.19,3.13,4,4,0,0,1-3.56,4.4A3,3,0,0,1,24.2,139ZM24,114.16a4,4,0,0,1-4-4V95.26a4,4,0,0,1,8,0v14.9A4,4,0,0,1,24,114.16Zm0-24.83a4,4,0,0,1-4-4V70.43a4,4,0,0,1,8,0v14.9A4,4,0,0,1,24,89.33Z"/><path class="cls-1" d="M420,175h-7.5a4,4,0,0,1,0-8H420a4,4,0,0,1,0,8Z"/></g><g id="line-7" data-name="line"><path class="cls-1" d="M289,55.5a4,4,0,0,1-4-4V44a4,4,0,0,1,8,0v7.5A4,4,0,0,1,289,55.5Z"/><path class="cls-1" d="M289,157.32a4,4,0,0,1-4-4V138a4,4,0,1,1,8,0v15.28A4,4,0,0,1,289,157.32Zm0-25.46a4,4,0,0,1-4-4V112.59a4,4,0,0,1,8,0v15.27A4,4,0,0,1,289,131.86Zm0-25.45a4,4,0,0,1-4-4V87.14a4,4,0,1,1,8,0v15.27A4,4,0,0,1,289,106.41ZM289,81a4,4,0,0,1-4-4V61.68a4,4,0,0,1,8,0V77A4,4,0,0,1,289,81Z"/><path class="cls-1" d="M289,175a4,4,0,0,1-4-4v-7.5a4,4,0,0,1,8,0V171A4,4,0,0,1,289,175Z"/></g></g></g><path class="cls-1" d="M415,250a4,4,0,0,1-4-4V231a4,4,0,0,1,8,0v15A4,4,0,0,1,415,250Zm0-25a4,4,0,0,1-4-4V206a4,4,0,0,1,8,0v15A4,4,0,0,1,415,225Zm0-25a4,4,0,0,1-4-4V181a4,4,0,0,1,8,0v15A4,4,0,0,1,415,200Z"/></g></g></g></g></g></svg>