<svg xmlns="http://www.w3.org/2000/svg" viewBox="0 0 286 290"><defs><style>.cls-1{opacity:0.2;}.cls-2{fill:#fff;}.cls-3{fill:#b2b2b1;}</style></defs><title>Asset 11</title><g id="Layer_2" data-name="Layer 2"><g id="infographic"><g id="consumption"><g id="content_consumption" data-name="content consumption"><g id="video"><g id="video-2" data-name="video"><rect id="shadow" class="cls-1" x="11" y="10" width="274" height="19"/><rect id="white" class="cls-2" x="3" width="274" height="20"/><rect id="shadow-2" data-name="shadow" class="cls-1" x="11" y="55" width="274" height="179"/><rect id="white-2" data-name="white" class="cls-2" x="3" y="47" width="274" height="179"/><g id="youtube-logo"><path id="bkgrd" d="M176.14,116.63a9.38,9.38,0,0,0-6.62-6.62c-5.88-1.61-29.39-1.61-29.39-1.61s-23.52,0-29.4,1.54a9.6,9.6,0,0,0-6.62,6.69c-1.55,5.88-1.55,18.07-1.55,18.07s0,12.25,1.55,18.07a9.4,9.4,0,0,0,6.62,6.62c5.94,1.61,29.4,1.61,29.4,1.61s23.51,0,29.39-1.55a9.38,9.38,0,0,0,6.62-6.62c1.55-5.88,1.55-18.07,1.55-18.07S177.75,122.51,176.14,116.63Z"/><polygon id="play" class="cls-2" points="133 145.96 152.56 134.7 133 123.44 133 145.96"/></g><g id="controls"><polygon id="play-2" data-name="play" class="cls-2" points="0 267 16.67 277 0 286 0 267"/><g id="pause"><rect id="white-3" data-name="white" class="cls-2" x="31" y="267" width="4" height="19"/><rect id="white-4" data-name="white" class="cls-2" x="40" y="267" width="4" height="19"/></g><rect id="stop" class="cls-2" x="59" y="267" width="19" height="19"/><g id="bar"><path id="bar-2" data-name="bar" class="cls-2" d="M106,271H240a0,0,0,0,1,0,0v8a0,0,0,0,1,0,0H106a3,3,0,0,1-3-3v-2A3,3,0,0,1,106,271Z"/><path id="bar-3" data-name="bar" class="cls-3" d="M240,271h43a3,3,0,0,1,3,3v2a3,3,0,0,1-3,3H240a0,0,0,0,1,0,0v-8A0,0,0,0,1,240,271Z"/><rect id="circle" class="cls-2" x="227" y="263" width="27" height="27" rx="13.5"/></g></g></g></g></g></g></g></g></svg>