<svg xmlns="http://www.w3.org/2000/svg" viewBox="0 0 298.25 291.26"><defs><style>.cls-1{opacity:0.5;}.cls-2{fill:#fff;}.cls-3,.cls-6{fill:none;stroke-miterlimit:10;}.cls-3{stroke:#000;stroke-width:5px;}.cls-4{fill:#ce201f;}.cls-5{fill:#1c1c1c;}.cls-6{stroke:#fff;stroke-width:10px;}.cls-7{opacity:0.2;}</style></defs><title>Asset 13</title><g id="Layer_2" data-name="Layer 2"><g id="infographic"><g id="video_search" data-name="video search"><g id="video_search_sevice" data-name="video search sevice"><g id="main-player"><rect id="shoadow" class="cls-1" x="44.05" y="44.43" width="196" height="174" rx="15"/><g id="player"><rect id="white" class="cls-2" x="34.05" y="32.43" width="196" height="174" rx="15"/><circle id="black" class="cls-3" cx="132.05" cy="119.43" r="47.5"/><polygon id="red" class="cls-4" points="119.05 101.76 119.05 140.43 152.72 121.09 119.05 101.76"/><rect id="black-2" data-name="black" class="cls-5" x="186.05" y="185.43" width="29" height="8"/></g><path id="corner" class="cls-6" d="M215,5.93s39.83-8,39.83,38.5"/><path id="corner-2" data-name="corner" class="cls-6" d="M5.93,44.83S-2.07,5,44.43,5"/><path id="corner-3" data-name="corner" class="cls-6" d="M44.83,235.9S5,243.9,5,197.4"/><g id="pointer"><polygon id="pointer-2" data-name="pointer" class="cls-7" points="251.17 234.43 269 280.43 274.33 268.1 295 291.26 298.25 288.01 278 264.6 292.33 261.26 251.17 234.43"/><polygon id="pointer-3" data-name="pointer" class="cls-2" points="241.17 224.43 259 270.43 264.33 258.1 285 281.26 288.25 278.01 268 254.59 282.33 251.26 241.17 224.43"/></g></g></g></g></g></g></svg>