<svg xmlns="http://www.w3.org/2000/svg" viewBox="0 0 690.36 154.06"><defs><style>.cls-1{fill:red;}.cls-2{fill:#fff;}.cls-3{fill:#282828;}</style></defs><title>Asset 6</title><g id="Layer_2" data-name="Layer 2"><g id="infographic"><g id="header"><g id="youtube"><g id="youtube-logo"><path class="cls-1" d="M215.51,24.11a27.58,27.58,0,0,0-19.4-19.4C178.89,0,110,0,110,0S41.14,0,23.93,4.53A28.14,28.14,0,0,0,4.53,24.11C0,41.33,0,77,0,77S0,112.92,4.53,130a27.58,27.58,0,0,0,19.4,19.39c17.4,4.71,86.09,4.71,86.09,4.71s68.87,0,86.09-4.53a27.58,27.58,0,0,0,19.4-19.39C220,112.92,220,77.21,220,77.21S220.22,41.33,215.51,24.11Z"/><polygon class="cls-2" points="88.36 110.02 145.63 77.03 88.36 44.04 88.36 110.02"/></g><g id="youtube-logo-2" data-name="youtube-logo"><path class="cls-3" d="M320.28,140.16c-4.33-2.9-7.41-7.41-9.21-13.74-1.81-6.14-2.71-14.46-2.71-24.58V87.93c0-10.3,1.08-18.62,3.07-24.94,2.17-6.33,5.42-10.85,9.76-13.74,4.52-2.89,10.3-4.34,17.53-4.34,7,0,12.83,1.45,17.17,4.34s7.41,7.59,9.39,13.74,3.08,14.45,3.08,24.94v13.91c0,10.3-.91,18.44-2.89,24.76-2,6.15-5.06,10.85-9.4,13.74s-10.3,4.33-17.71,4.33C330.77,144.49,324.62,143.05,320.28,140.16Zm24.28-15.34c1.26-3.06,1.8-8.27,1.8-15.28V79.69c0-6.83-.54-11.86-1.8-15.1s-3.24-4.67-6.29-4.67c-2.88,0-5,1.62-6.12,4.67-1.25,3.24-1.79,8.27-1.79,15.1v29.85c0,7,.54,12.22,1.79,15.28,1.08,3.05,3.24,4.67,6.3,4.67C341.32,129.49,343.3,128.05,344.56,124.82Z"/><path class="cls-3" d="M654.36,101.78v4.9a132.08,132.08,0,0,0,.54,13.95c.36,3.08,1.09,5.44,2.35,6.71q1.63,2.17,5.43,2.17c3.26,0,5.44-1.26,6.7-3.8s1.81-6.71,2-12.69L690,114.11a18.75,18.75,0,0,1,.18,3.44c0,8.88-2.35,15.59-7.24,19.94S671.19,144,662.32,144c-10.68,0-18.1-3.44-22.45-10.15s-6.51-17-6.51-31.17V85.83c0-14.5,2.15-25,6.65-31.72s12-10,22.66-10c7.37,0,13.12,1.45,17.08,4.17S686.4,55.38,688,61c1.62,5.8,2.34,13.78,2.34,23.93v16.49h-36Zm2.72-40.09c-1.09,1.45-1.81,3.62-2.18,6.7a134,134,0,0,0-.54,14.14v6.89h16V82.53a135.35,135.35,0,0,0-.55-14.14c-.36-3.26-1.27-5.43-2.36-6.7a6.57,6.57,0,0,0-5.09-2C659.81,59.51,658.18,60.24,657.08,61.69Z"/><path class="cls-3" d="M267.18,100.42l-24.56-89h21.13l8.57,39.82q3.21,14.73,4.82,25.18h.54c.71-5,2.32-13.21,4.82-25l8.93-40h21.49l-24.56,89.27v42.73h-21v-43Z"/><path class="cls-3" d="M438.36,46.42v97H421l-1.84-12H419c-4.54,8.9-11.62,13.44-20.89,13.44-6.35,0-11.07-2.18-14.16-6.36s-4.54-10.71-4.54-19.79V46.42h22v70.87c0,4.35.53,7.43,1.41,9.24a4.73,4.73,0,0,0,4.59,2.72,10.7,10.7,0,0,0,9-6.16V46.42Z"/><path class="cls-3" d="M550.36,46.42v97H533l-1.84-12H531c-4.54,8.9-11.62,13.44-20.89,13.44-6.35,0-11.07-2.18-14.16-6.36s-4.54-10.71-4.54-19.79V46.42h22v70.87c0,4.35.53,7.43,1.41,9.24a4.73,4.73,0,0,0,4.59,2.72,10.7,10.7,0,0,0,9-6.16V46.42Z"/><path class="cls-3" d="M497.36,28.42h-22v115h-21v-115h-21v-18h64Z"/><path class="cls-3" d="M621.36,62.49C620.1,56.33,617.92,52,615,49.27S608,45.1,602.88,45.1a19.57,19.57,0,0,0-11.23,3.44,22.23,22.23,0,0,0-8,8.88h.68v-51h-21v137h17.82l2.16-9h-.2a18.46,18.46,0,0,0,7.61,7.79,23.53,23.53,0,0,0,11.23,2.9c7.43,0,12.68-3.44,16.12-10.15s5.26-17.39,5.26-31.7V88C623.18,77,622.63,68.47,621.36,62.49Zm-19.18,38.93a125.82,125.82,0,0,1-.91,16.49c-.55,4-1.64,6.89-2.91,8.52A7.12,7.12,0,0,1,592.9,129,9,9,0,0,1,588,127.7a10.45,10.45,0,0,1-3.63-3.8V69.16a14.72,14.72,0,0,1,3.82-6.53A8.81,8.81,0,0,1,594,60.09a5.89,5.89,0,0,1,5.09,2.54c1.28,1.81,2,4.71,2.55,8.7a144.61,144.61,0,0,1,.73,17.4v12.69Z"/></g></g></g></g></g></svg>