<svg xmlns="http://www.w3.org/2000/svg" viewBox="0 0 100 137"><defs><style>.cls-1{fill:#fff;}</style></defs><title>Asset 33</title><g id="Layer_2" data-name="Layer 2"><g id="infographic"><g id="popular"><g id="popular-2" data-name="popular"><g id="reason_icons" data-name="reason icons"><g id="old_aged" data-name="old aged"><g id="oldman"><g id="oldman-2" data-name="oldman"><path class="cls-1" d="M45.61,57l6.23-16.62-4.68-1.75-7.5,20A2.5,2.5,0,0,0,42,62H52V57Z"/></g><g id="oldman-3" data-name="oldman"><path class="cls-1" d="M77.25,36H75v5h2a4.66,4.66,0,0,1,4.72,4.09A4.5,4.5,0,0,1,77.25,50H75v4h1.89a9.23,9.23,0,0,0,9.34-8.42A9,9,0,0,0,77.25,36Z"/></g><g id="oldman-4" data-name="oldman"><path class="cls-1" d="M22.75,41H25V36H23.11a9.24,9.24,0,0,0-9.34,8.43,9,9,0,0,0,9,9.57H25V50H23a4.66,4.66,0,0,1-4.72-4.08A4.51,4.51,0,0,1,22.75,41Z"/></g><g id="oldman-5" data-name="oldman"><path class="cls-1" d="M50.18,59.28A2.28,2.28,0,0,0,47.9,57H38.75A13.73,13.73,0,0,0,25,70.73,2.28,2.28,0,0,0,27.32,73h9.15A13.71,13.71,0,0,0,50.18,59.28ZM36.44,68h-6.7a9.36,9.36,0,0,1,9-7h6.7A9.36,9.36,0,0,1,36.44,68Z"/></g><g id="oldman-6" data-name="oldman"><path class="cls-1" d="M57,57H47.85a2.29,2.29,0,0,0-2.28,2.28A13.72,13.72,0,0,0,59.29,73h9.14a2.27,2.27,0,0,0,2.28-2.27A13.72,13.72,0,0,0,57,57Zm2.31,11a9.36,9.36,0,0,1-9-7H57a9.34,9.34,0,0,1,9,7Z"/></g><g id="oldman-7" data-name="oldman"><circle class="cls-1" cx="36.47" cy="45.5" r="4.56"/></g><g id="oldman-8" data-name="oldman"><circle class="cls-1" cx="61.56" cy="45.5" r="4.56"/></g><g id="oldman-9" data-name="oldman"><path class="cls-1" d="M71.39,16H61.56s-1.46.22-1.88.84L58.89,18a10.48,10.48,0,0,1-17.48,0l-.77-1.14A1.84,1.84,0,0,0,38.75,16H34.19A10.88,10.88,0,0,0,23,27.25V56.91a24.36,24.36,0,0,0,2.27,11.42l4.15-1.9c-1.36-3-1.42-9.52-1.42-9.52V26.85A6.85,6.85,0,0,1,34.84,20h3.22l.08.13a14.72,14.72,0,0,0,24.71,0l.09-.14h3.22A6.85,6.85,0,0,1,73,26.85V56.19A22.81,22.81,0,0,1,50.19,79h0A22.28,22.28,0,0,1,31.53,68.39l-3.74,2.88A26.78,26.78,0,0,0,50.18,84h12A15.86,15.86,0,0,0,78,68.14V22.61A6.61,6.61,0,0,0,71.39,16Z"/></g><g id="oldman-10" data-name="oldman"><path class="cls-1" d="M72.08,9.35A24.75,24.75,0,0,0,52.44,0H47.88A24.77,24.77,0,0,0,28.23,9.35,20.45,20.45,0,0,0,15,30.42l1,10.73,4.54-.42L19.51,30A15.93,15.93,0,0,1,30.35,13.44a2.23,2.23,0,0,0,1.1-.79A18.68,18.68,0,0,1,47.88,5h4.56a18.66,18.66,0,0,1,16.42,7.65,2.28,2.28,0,0,0,1.1.79A15.91,15.91,0,0,1,80.8,30l-1,10.72,4.55.42,1-10.73A20.46,20.46,0,0,0,72.08,9.35Z"/></g><g id="oldman-11" data-name="oldman"><rect class="cls-1" x="32" y="32" width="37" height="5"/></g><g id="oldman-12" data-name="oldman"><path class="cls-1" d="M34,78v8.49a3.62,3.62,0,0,1-3.11,3.56L17.7,91.8A20.48,20.48,0,0,0,0,112v25H5V112A15.93,15.93,0,0,1,18.76,96.3L32,94.55a8.18,8.18,0,0,0,7-8.06V78Z"/></g><g id="oldman-13" data-name="oldman"><path class="cls-1" d="M82.3,91.8,69.12,90.05A3.61,3.61,0,0,1,66,86.49V78H62v8.49a8.18,8.18,0,0,0,7,8.06L82.23,96.3A15.93,15.93,0,0,1,96,112v25h4V112A20.48,20.48,0,0,0,82.3,91.8Z"/></g><g id="oldman-14" data-name="oldman"><rect class="cls-1" x="18" y="119" width="5" height="18"/></g><g id="oldman-15" data-name="oldman"><rect class="cls-1" x="77" y="119" width="5" height="18"/></g><g id="oldman-16" data-name="oldman"><path class="cls-1" d="M64.41,89.62,50.16,105.91,35.91,89.63l-3.44,3,16,18.25a2.29,2.29,0,0,0,3.44,0l16-18.25Z"/></g><g id="oldman-17" data-name="oldman"><path class="cls-1" d="M49.78,107.13l-11.94,2L29.43,90.2l-4.17,1.85,9.13,20.54a2.28,2.28,0,0,0,2.08,1.35l.38,0,13.68-2.28Z"/></g><g id="oldman-18" data-name="oldman"><path class="cls-1" d="M70.89,90.2l-8.41,18.92-11.95-2-.75,4.5,13.69,2.28a2.43,2.43,0,0,0,.38,0,2.28,2.28,0,0,0,2.08-1.35l9.13-20.54Z"/></g><g id="oldman-19" data-name="oldman"><rect class="cls-1" x="48" y="110" width="5" height="27"/></g><g id="oldman-20" data-name="oldman"><path class="cls-1" d="M20.72,123H2.28A2.28,2.28,0,0,0,0,125.28V137H4v-9H18v9h5V125.28A2.28,2.28,0,0,0,20.72,123Z"/></g><g id="oldman-21" data-name="oldman"><path class="cls-1" d="M97.72,123H79.28A2.28,2.28,0,0,0,77,125.28V137h5v-9H96v9h4V125.28A2.28,2.28,0,0,0,97.72,123Z"/></g><g id="oldman-22" data-name="oldman"><path class="cls-1" d="M42.17,116.22a3.43,3.43,0,1,0,3.43,3.42A3.43,3.43,0,0,0,42.17,116.22Zm0,4.57a1.15,1.15,0,1,1,1.14-1.15A1.15,1.15,0,0,1,42.17,120.79Z"/></g></g></g></g></g></g></g></g></svg>