<svg xmlns="http://www.w3.org/2000/svg" viewBox="0 0 151.77 134.81"><defs><style>.cls-1{fill:#fff;}.cls-2{fill:#ce201f;}</style></defs><title>Asset 34</title><g id="Layer_2" data-name="Layer 2"><g id="infographic"><g id="popular"><g id="popular-2" data-name="popular"><g id="reason_icons" data-name="reason icons"><g id="high_qual" data-name="high qual"><g id="youtube"><g id="youtube-logo"><path id="bkgrd" class="cls-1" d="M149.36,65.82a14.64,14.64,0,0,0-10.29-10.3C129.93,53,93.36,53,93.36,53s-36.57,0-45.71,2.41A14.92,14.92,0,0,0,37.36,65.82C35,75,35,93.92,35,93.92s0,19,2.41,28.1a14.61,14.61,0,0,0,10.29,10.29c9.24,2.5,45.71,2.5,45.71,2.5s36.57,0,45.71-2.4a14.62,14.62,0,0,0,10.29-10.3c2.41-9.14,2.41-28.1,2.41-28.1S151.87,75,149.36,65.82Z"/><polygon id="play" class="cls-2" points="80 111.43 110.41 93.92 80 76.41 80 111.43"/></g><g id="thumb"><circle id="inner" class="cls-2" cx="50" cy="50" r="47"/><path id="inner-2" data-name="inner" class="cls-1" d="M50,3A47,47,0,1,1,3,50,47,47,0,0,1,50,3m0-3a50,50,0,1,0,50,50A50.06,50.06,0,0,0,50,0Z"/><g id="thumb-2" data-name="thumb"><path id="thumb-3" data-name="thumb" class="cls-1" d="M67.42,57a5.78,5.78,0,0,0,1.36-3.87,5.92,5.92,0,0,0-1.27-3.35,5.2,5.2,0,0,0-1.24-6c-1.54-1.42-4.17-2-7.82-1.87a29.85,29.85,0,0,0-4.79.61h-.4c-.48.09-1,.19-1.51.31,0-.62.07-2.15,1.2-5.59,1.35-4.1,1.27-7.23-.25-9.33a6.1,6.1,0,0,0-4.89-2.37,2.42,2.42,0,0,0-1.86.85c-1.07,1.24-.94,3.52-.81,4.58C43.88,34.36,40.32,42.7,37.31,45l-.16.13A10.51,10.51,0,0,0,35.27,48a3.94,3.94,0,0,0-1.9-.48H27.52a4,4,0,0,0-4,4v16a4,4,0,0,0,4,4h6a4,4,0,0,0,2.34-.74l2.29.27a97.38,97.38,0,0,0,13,.71c1.16.09,2.25.14,3.26.14a22.1,22.1,0,0,0,4.53-.41c3-.63,5-1.9,6.05-3.76A5.92,5.92,0,0,0,65.61,64a6.2,6.2,0,0,0,2.21-5.06A6.35,6.35,0,0,0,67.42,57ZM27.5,69.13c-.33,0-1-1.41-1-1.41V51.91a1.41,1.41,0,0,1,1.41-1.41h6.18a1.41,1.41,0,0,1,1.41,1.41V68.09a1.41,1.41,0,0,1-1.41,1.41H27.5ZM65,56.18a1.31,1.31,0,0,0-.17,1.58,4.12,4.12,0,0,1,.44,1.61,3.88,3.88,0,0,1-1.81,3.35,1.32,1.32,0,0,0-.45,1.49,3.38,3.38,0,0,1-.26,2.49c-.65,1.16-2.09,2-4.27,2.46a31.21,31.21,0,0,1-7.05.34h-.13c-6.22,0-12.5-.81-12.57-1h0l-1,.07a.73.73,0,0,0-.28-.85V52a1.13,1.13,0,0,0,.19-1.2,7.94,7.94,0,0,1,1.8-3.32c4.34-3.44,8.58-15,8.76-15.55a1.18,1.18,0,0,0,.06-.65,6,6,0,0,1,.13-2.8,3.47,3.47,0,0,1,2.72,1.31c1,1.36,1,3.8-.11,7-1.63,4.92-1.76,7.51-.48,8.65a2.12,2.12,0,0,0,2.11.38c.59-.13,1.15-.25,1.68-.34l.13,0c3-.64,8.28-1,10.13.64A2.8,2.8,0,0,1,65,49.64a1.28,1.28,0,0,0,.23,1.68,3.69,3.69,0,0,1,1.07,2.25A3.59,3.59,0,0,1,65,56.18Z"/><path class="cls-1" d="M54.37,72.38c-1,0-2.07,0-3.3-.14a98.48,98.48,0,0,1-13-.71L36,71.28a4.57,4.57,0,0,1-2.47.72h-6A4.53,4.53,0,0,1,23,67.48v-16A4.53,4.53,0,0,1,27.52,47h5.85a4.42,4.42,0,0,1,1.66.32,10.76,10.76,0,0,1,1.76-2.51A1.79,1.79,0,0,1,37,44.6c2.73-2.1,6.14-9.82,7.6-13.71-.12-1.09-.23-3.48.94-4.85a2.91,2.91,0,0,1,2.24-1,6.64,6.64,0,0,1,5.3,2.58c1.61,2.23,1.72,5.52.32,9.78a21.61,21.61,0,0,0-1.17,4.81l.91-.18h.43a32.47,32.47,0,0,1,4.83-.61c3.77-.18,6.53.49,8.18,2a5.68,5.68,0,0,1,1.46,6.28,6.37,6.37,0,0,1,1.21,3.41,6.16,6.16,0,0,1-1.3,4,6.88,6.88,0,0,1,.34,1.85,6.66,6.66,0,0,1-2.18,5.27A6.39,6.39,0,0,1,65.39,68c-1.11,2-3.26,3.35-6.39,4A22.23,22.23,0,0,1,54.37,72.38ZM51.1,71.24c1.25.1,2.3.14,3.27.14a20.9,20.9,0,0,0,4.42-.4c2.84-.6,4.76-1.78,5.72-3.51a5.43,5.43,0,0,0,.61-3.42l0-.26.2-.18a5.75,5.75,0,0,0,2-4.66A6.15,6.15,0,0,0,67,57.14l-.1-.26.17-.22a5.34,5.34,0,0,0,1.25-3.54,5.46,5.46,0,0,0-1.17-3.07l-.17-.22.11-.27a4.72,4.72,0,0,0-1.11-5.43c-1.45-1.33-4-1.91-7.46-1.74a29.7,29.7,0,0,0-4.71.6h-.51c-.39.08-.89.18-1.4.3l-.57.12,0-.58c0-.79.12-2.43,1.23-5.78,1.29-3.93,1.23-6.92-.18-8.87A5.63,5.63,0,0,0,47.81,26a1.93,1.93,0,0,0-1.48.67c-1,1.15-.78,3.51-.69,4.2l0,.12,0,.12c-.17.46-4.29,11.43-8,14.29a.45.45,0,0,0-.1.09,9.74,9.74,0,0,0-1.79,2.68l-.22.49L35,48.42A3.41,3.41,0,0,0,33.37,48H27.52A3.53,3.53,0,0,0,24,51.52v16A3.53,3.53,0,0,0,27.52,71h6a3.49,3.49,0,0,0,2-.65l.16-.11,2.48.3A99.82,99.82,0,0,0,51.1,71.24ZM53.69,70c-.69,0-1.43,0-2.24,0h-.13c-2.22,0-10.47-.33-12.55-1v0l-1.61.11.14-.65c0-.19,0-.23-.11-.35L37,68V51.81l.13-.14c.17-.2.19-.36.08-.72l0-.14,0-.14a8.71,8.71,0,0,1,1.92-3.53c3.39-2.69,7-10.93,8.66-15.38a.74.74,0,0,0,0-.39A6.44,6.44,0,0,1,48,28.23l.15-.25h.3a3.93,3.93,0,0,1,3.12,1.51c1.08,1.51,1.07,4.09,0,7.48-1.53,4.64-1.72,7.14-.62,8.12a1.61,1.61,0,0,0,1.61.28c.66-.15,1.23-.27,1.77-.36l.1,0c3.16-.69,8.58-1.06,10.57.75a3.27,3.27,0,0,1,.42,4.16A.81.81,0,0,0,65.51,51a4.13,4.13,0,0,1,1.24,2.61,4.06,4.06,0,0,1-1.35,3,.81.81,0,0,0-.11,1l.08.14a4.51,4.51,0,0,1,.44,1.71,4.34,4.34,0,0,1-2,3.77.8.8,0,0,0-.28.92l0,.1a3.89,3.89,0,0,1-.32,2.8c-.73,1.3-2.28,2.21-4.61,2.71A24.52,24.52,0,0,1,53.69,70Zm-2.35-1h.13a30.33,30.33,0,0,0,6.94-.33c2-.44,3.37-1.18,3.94-2.21a2.85,2.85,0,0,0,.22-2.1,1.84,1.84,0,0,1,.62-2,3.37,3.37,0,0,0,1.62-2.92A3.45,3.45,0,0,0,64.43,58h0a1.8,1.8,0,0,1,.25-2.16h0a3.14,3.14,0,0,0,1.07-2.24,3.21,3.21,0,0,0-.92-1.92,1.78,1.78,0,0,1-.3-2.31,2.25,2.25,0,0,0-.25-2.89C62.67,45,57.65,45.3,54.59,46l-.15,0c-.52.08-1.07.2-1.65.33a2.57,2.57,0,0,1-2.55-.49c-1.48-1.32-1.39-4,.33-9.18,1-3,1.06-5.37.19-6.58a2.86,2.86,0,0,0-2-1.07,7.63,7.63,0,0,0,0,2.2,1.62,1.62,0,0,1-.08.9c-.46,1.25-4.6,12.34-8.92,15.77a7.42,7.42,0,0,0-1.59,2.92A1.57,1.57,0,0,1,38,52.17V67.5a1.22,1.22,0,0,1,.29.53l.82,0,0,.13A81.31,81.31,0,0,0,51.29,69ZM34.09,70H27v-.58a4.67,4.67,0,0,1-.95-1.49L26,67.72V51.91A1.92,1.92,0,0,1,27.91,50h6.18A1.92,1.92,0,0,1,36,51.91V68.09A1.92,1.92,0,0,1,34.09,70ZM28,69h6.09a.91.91,0,0,0,.91-.91V51.91a.91.91,0,0,0-.91-.91H27.91a.91.91,0,0,0-.91.91V67.6a6.17,6.17,0,0,0,.62,1H28Z"/></g><path id="star" class="cls-1" d="M69.55,18.86l2.16,6.64a.73.73,0,0,0,.69.5h7a.73.73,0,0,1,.43,1.31l-5.65,4.1a.71.71,0,0,0-.26.81l2.15,6.64a.72.72,0,0,1-1.11.81l-5.65-4.1a.71.71,0,0,0-.85,0l-5.65,4.1a.72.72,0,0,1-1.11-.81l2.15-6.64a.71.71,0,0,0-.26-.81l-5.65-4.1A.73.73,0,0,1,58.35,26h7a.73.73,0,0,0,.69-.5l2.16-6.64A.72.72,0,0,1,69.55,18.86Z"/></g></g></g></g></g></g></g></g></svg>