<svg xmlns="http://www.w3.org/2000/svg" xmlns:xlink="http://www.w3.org/1999/xlink" viewBox="0 0 751 563"><defs><style>

.cls-7:hover {
    fill: #ce201f;
    transition-duration: 3s;
    cursor: pointer;
}
.cls-9 tspan:hover{
text-decoration:underline;
 cursor: pointer;
}
.cls-11:hover, .cls-8:hover{
  fill: #000000;
transition-duration: 2s;
cursor: pointer;
}
.cls-13:hover{
fill: #000000;
cursor: pointer;
}



.cls-1,.cls-12,.cls-2{fill:none;}.cls-2{stroke:#fff;stroke-width:10px;}.cls-12,.cls-2,.cls-6{stroke-miterlimit:10;}.cls-3,.cls-6{fill:#fff;}.cls-4{clip-path:url(#clip-path);}.cls-5{fill:#b2b2b2;}.cls-6{stroke:#ce201f;stroke-width:3px;}.cls-7{fill:#e5e5e5;}.cls-8{fill:red;}.cls-9{font-size:30px;font-family:Roboto-Regular, Roboto;}.cls-10{letter-spacing:-0.01em;}.cls-11{fill:#dcdcdc;}.cls-12{stroke:#666;stroke-width:2px;}.cls-13{fill:#575757;}</style><clipPath id="clip-path"><path id="white_bottom" class="cls-1" d="M395.64,548H364.15a8.19,8.19,0,0,1-8.16-7.42L346.68,442h66.43l-9.31,98.58A8.19,8.19,0,0,1,395.64,548Z"/></clipPath></defs><title>Asset 7</title><g id="Layer_2" data-name="Layer 2"><g id="infographic"><g id="header"><g id="tv"><g id="tv-bottom"><ellipse id="circle" class="cls-2" cx="378.5" cy="539" rx="132.5" ry="19"/><path id="white_bottom-2" data-name="white_bottom" class="cls-3" d="M395.64,548H364.15a8.19,8.19,0,0,1-8.16-7.42L346.68,442h66.43l-9.31,98.58A8.19,8.19,0,0,1,395.64,548Z"/><g id="grey-top"><g class="cls-4"><rect id="grey" class="cls-5" x="321" y="424" width="123" height="31"/></g></g></g><g id="tv-2" data-name="tv"><path id="frame" class="cls-6" d="M16.5,1.5h718a15,15,0,0,1,15,15v424a0,0,0,0,1,0,0H1.5a0,0,0,0,1,0,0V16.5a15,15,0,0,1,15-15Z"/><path id="inner" class="cls-7" d="M24,19H726a5,5,0,0,1,5,5V418a0,0,0,0,1,0,0H19a0,0,0,0,1,0,0V24A5,5,0,0,1,24,19Z"/><path id="white" class="cls-3" d="M33,30H619a5,5,0,0,1,5,5V98a0,0,0,0,1,0,0H28a0,0,0,0,1,0,0V35A5,5,0,0,1,33,30Z"/><path id="white-2" data-name="white" class="cls-3" d="M638,30h81a5,5,0,0,1,5,5V98a0,0,0,0,1,0,0H633a0,0,0,0,1,0,0V35A5,5,0,0,1,638,30Z"/><path id="white-3" data-name="white" class="cls-3" d="M460,114H719a5,5,0,0,1,5,5v63a0,0,0,0,1,0,0H455a0,0,0,0,1,0,0V119A5,5,0,0,1,460,114Z"/><path id="white-4" data-name="white" class="cls-3" d="M168,114H435a5,5,0,0,1,5,5V262a0,0,0,0,1,0,0H163a0,0,0,0,1,0,0V119A5,5,0,0,1,168,114Z"/><path id="white-5" data-name="white" class="cls-3" d="M33,114H145a5,5,0,0,1,5,5V405a0,0,0,0,1,0,0H28a0,0,0,0,1,0,0V119A5,5,0,0,1,33,114Z"/><path id="white-6" data-name="white" class="cls-3" d="M168,278H284a5,5,0,0,1,5,5v80a0,0,0,0,1,0,0H163a0,0,0,0,1,0,0V283A5,5,0,0,1,168,278Z"/><path id="white-7" data-name="white" class="cls-3" d="M306,278H422a5,5,0,0,1,5,5v80a0,0,0,0,1,0,0H301a0,0,0,0,1,0,0V283A5,5,0,0,1,306,278Z"/><path id="white-8" data-name="white" class="cls-3" d="M445,278H561a5,5,0,0,1,5,5v80a0,0,0,0,1,0,0H440a0,0,0,0,1,0,0V283A5,5,0,0,1,445,278Z"/><path id="white-9" data-name="white" class="cls-3" d="M584,278H700a5,5,0,0,1,5,5v80a0,0,0,0,1,0,0H579a0,0,0,0,1,0,0V283A5,5,0,0,1,584,278Z"/><g id="youtube-logo"><path class="cls-8" d="M320.81,170.89a5.57,5.57,0,0,0-3.93-3.93c-3.49-1-17.44-1-17.44-1s-13.95,0-17.44.91a5.71,5.71,0,0,0-3.93,4c-.92,3.49-.92,10.72-.92,10.72s0,7.27.92,10.72a5.57,5.57,0,0,0,3.93,3.93c3.52,1,17.44,1,17.44,1s13.95,0,17.44-.92a5.57,5.57,0,0,0,3.93-3.93c.92-3.49.92-10.72.92-10.72S321.77,174.38,320.81,170.89Z"/><polygon class="cls-3" points="294 188.29 305.6 181.61 294 174.93 294 188.29"/></g><g id="youtube-logo-2" data-name="youtube-logo"><path class="cls-8" d="M244.12,312.91a3.83,3.83,0,0,0-2.7-2.7c-2.39-.65-12-.65-12-.65s-9.59,0-12,.63a3.9,3.9,0,0,0-2.7,2.72,43.37,43.37,0,0,0,0,14.73,3.82,3.82,0,0,0,2.7,2.7c2.42.66,12,.66,12,.66s9.59,0,12-.63a3.82,3.82,0,0,0,2.7-2.7,40.53,40.53,0,0,0,.63-7.37A38,38,0,0,0,244.12,312.91Z"/><polygon class="cls-3" points="226 324.87 233.97 320.28 226 315.69 226 324.87"/></g><g id="youtube-logo-3" data-name="youtube-logo"><path class="cls-8" d="M382.79,312.91a3.85,3.85,0,0,0-2.7-2.7c-2.4-.65-12-.65-12-.65s-9.59,0-12,.63a3.93,3.93,0,0,0-2.7,2.72,43.37,43.37,0,0,0,0,14.73,3.83,3.83,0,0,0,2.7,2.7c2.43.66,12,.66,12,.66s9.58,0,12-.63a3.83,3.83,0,0,0,2.7-2.7,40.53,40.53,0,0,0,.63-7.37A38,38,0,0,0,382.79,312.91Z"/><polygon class="cls-3" points="365 324.87 372.97 320.28 365 315.69 365 324.87"/></g><g id="youtube-logo-4" data-name="youtube-logo"><path class="cls-8" d="M521.46,312.91a3.87,3.87,0,0,0-2.7-2.7c-2.4-.65-12-.65-12-.65s-9.58,0-12,.63a3.9,3.9,0,0,0-2.7,2.72,43.37,43.37,0,0,0,0,14.73,3.82,3.82,0,0,0,2.7,2.7c2.42.66,12,.66,12,.66s9.59,0,12-.63a3.85,3.85,0,0,0,2.7-2.7,40.53,40.53,0,0,0,.63-7.37A38.88,38.88,0,0,0,521.46,312.91Z"/><polygon class="cls-3" points="503 324.87 510.97 320.28 503 315.69 503 324.87"/></g><g id="youtube-logo-5" data-name="youtube-logo"><path class="cls-8" d="M660.12,312.91a3.83,3.83,0,0,0-2.7-2.7c-2.39-.65-12-.65-12-.65s-9.59,0-12,.63a3.9,3.9,0,0,0-2.7,2.72,43.37,43.37,0,0,0,0,14.73,3.82,3.82,0,0,0,2.7,2.7c2.42.66,12,.66,12,.66s9.59,0,12-.63a3.82,3.82,0,0,0,2.7-2.7,40.53,40.53,0,0,0,.63-7.37A38,38,0,0,0,660.12,312.91Z"/><polygon class="cls-3" points="642 324.87 649.97 320.28 642 315.69 642 324.87"/></g><text class="cls-9" transform="translate(51.73 70.17)"><tspan class="cls-10">y</tspan><tspan x="13.97" y="0">outube/</tspan></text><rect id="grey-2" data-name="grey" class="cls-11" x="645" y="38" width="68" height="52"/><g id="search"><ellipse id="dark-grey" class="cls-12" cx="678.5" cy="62" rx="10.5" ry="11"/><line id="dark-grey-2" data-name="dark-grey" class="cls-12" x1="691.56" y1="78.25" x2="684.52" y2="71"/></g><g id="dark-grey-3" data-name="dark-grey"><rect id="dark-grey-4" data-name="dark-grey" class="cls-13" x="455" y="196" width="211" height="16"/><rect id="dark-grey-5" data-name="dark-grey" class="cls-13" x="455" y="219" width="110" height="16"/></g></g></g></g></g></g></svg>